<svg xmlns="http://www.w3.org/2000/svg" viewBox="0 0 800 800" width="800" height="800"><defs><clipPath id="a"><path d="M0 0h613.522v676.129H0z"/></clipPath></defs><g clip-path="url(#a)" transform="translate(70.0 8.0) rotate(0.0 305.0 336.0) scale(0.9942593745619553 0.9938931771895599) translate(-0.0 -0.0)"><defs><linearGradient id="b" data-name="Безымянный градиент 4" x1="305.496" y1="612.659" x2="305.496" y2="34.525" gradientUnits="userSpaceOnUse"><stop offset="0" stop-color="#fff"/><stop offset=".328" stop-color="#c8c5d7"/><stop offset=".633" stop-color="#9c97b6"/><stop offset=".866" stop-color="#807aa2"/><stop offset="1" stop-color="#766f9b"/></linearGradient><linearGradient id="c" data-name="Безымянный градиент 6" x1="303.352" y1="825.523" x2="308.267" y2="514.222" gradientUnits="userSpaceOnUse"><stop offset=".394" stop-color="#fff"/><stop offset=".417" stop-color="#f6f5f8"/><stop offset=".542" stop-color="#c8c6d7"/><stop offset=".661" stop-color="#a5a0bd"/><stop offset=".77" stop-color="#8b85aa"/><stop offset=".867" stop-color="#7b759f"/><stop offset=".941" stop-color="#766f9b"/></linearGradient></defs><rect x=".963" width="609.066" height="625.53" rx="17.609" style="fill:url(#b)"/><ellipse cx="306.761" cy="609.583" rx="306.761" ry="66.546" style="fill:url(#c)"/><path d="M476.442 121.781a1.993 1.993 0 0 1-1.993-1.993V29.616a1.993 1.993 0 1 1 3.985 0v90.172a1.993 1.993 0 0 1-1.992 1.993Zm-291.635-6.719a1.992 1.992 0 0 1-1.993-1.992V25.41a1.993 1.993 0 1 1 3.985 0v87.66a1.992 1.992 0 0 1-1.992 1.992Zm-83.842 169.229a1.992 1.992 0 0 1-1.993-1.992V129.1a1.993 1.993 0 1 1 3.985 0v153.2a1.992 1.992 0 0 1-1.992 1.991Zm30.235 50.086a1.993 1.993 0 0 1-1.993-1.993V195.553a1.993 1.993 0 0 1 3.985 0v136.831a1.992 1.992 0 0 1-1.992 1.993ZM32.76 202.269a1.992 1.992 0 0 1-1.992-1.992V18.465a1.993 1.993 0 0 1 3.985 0v181.812a1.992 1.992 0 0 1-1.993 1.992Zm25.061 186.189a1.993 1.993 0 0 1-1.993-1.993V141.472a1.993 1.993 0 0 1 3.986 0v244.993a1.993 1.993 0 0 1-1.993 1.993Zm459.256 9.169a1.993 1.993 0 0 1-1.993-1.993V89.436a1.993 1.993 0 0 1 3.986 0v306.2a1.993 1.993 0 0 1-1.993 1.991Zm-23.44-51.636a1.992 1.992 0 0 1-1.992-1.991V197.351a1.993 1.993 0 0 1 3.985 0V344a1.993 1.993 0 0 1-1.993 1.991Zm85.848-132.127a1.992 1.992 0 0 1-1.993-1.992v-105.73a1.993 1.993 0 0 1 3.985 0v105.73a1.992 1.992 0 0 1-1.992 1.992Zm-30.461 87.614a1.993 1.993 0 0 1-1.993-1.993V18.465a1.993 1.993 0 0 1 3.986 0v281.02a1.993 1.993 0 0 1-1.993 1.993ZM152.482 124.091a1.992 1.992 0 0 1-1.993-1.992V48.817a1.993 1.993 0 1 1 3.985 0V122.1a1.992 1.992 0 0 1-1.992 1.991Zm427.003 343.825a1.993 1.993 0 0 1-1.993-1.993V279.816a1.993 1.993 0 1 1 3.985 0v186.107a1.993 1.993 0 0 1-1.992 1.993Zm-30.461-79.78a1.993 1.993 0 0 1-1.993-1.993v-42.6a1.993 1.993 0 0 1 3.986 0v42.6a1.993 1.993 0 0 1-1.993 1.993ZM100.965 512.721a1.992 1.992 0 0 1-1.993-1.992v-192.41a1.993 1.993 0 1 1 3.985 0v192.41a1.992 1.992 0 0 1-1.992 1.992ZM28.292 384.843a1.992 1.992 0 0 1-1.993-1.992v-61.529a1.993 1.993 0 1 1 3.985 0v61.529a1.992 1.992 0 0 1-1.992 1.992Zm18.022 78.763a1.992 1.992 0 0 1-1.992-1.992v-24.576a1.993 1.993 0 1 1 3.985 0v24.576a1.992 1.992 0 0 1-1.993 1.992Zm31.13-369.671a1.992 1.992 0 0 1-1.992-1.992v-59.8a1.993 1.993 0 1 1 3.985 0v59.8a1.992 1.992 0 0 1-1.993 1.992Z" style="fill:#3e315b"/></g><defs><clipPath id="d"><path d="M0 0h602.66v753.886H0z"/></clipPath></defs><g clip-path="url(#d)" transform="translate(150.0 37.0) rotate(0.0 300.5 376.0) scale(0.9972455447516013 0.9974982954982584) translate(-0.0 -0.0)"><path d="M568.99 669.4c-60.033 89.872-220.4 112.044-320.008 41.808-27.1-19.107-46.22-42.61-59.68-64.926a230.443 230.443 0 0 1-7.684-13.7q-2.238-4.332-4.22-8.519a256.723 256.723 0 0 1-49.765-6.466c-37.508-8.631-51.818-20.406-87.674-19.283-12.161.385-32.615 2.422-37.412-7.011-3.129-6.16 1.845-14.519 3.513-17.535 6.113-11.037 22.46-15.353 31.589-17A230.689 230.689 0 0 1 11.05 490.9a215.526 215.526 0 0 1-4.25-25.266c-1.444-13.348-3.4-32.984 1.669-57.578a122.116 122.116 0 0 1 8.422-26.39.06.06 0 0 1 .016-.049c8.134-18.08 21.369-36.545 44.263-71.647 0-.016.016-.016.016-.032l1.2-1.829a2585.598 2585.598 0 0 0 28.765-45.177 61.476 61.476 0 0 0 7.091-16.284 62.014 62.014 0 0 0-1.363-36.948 271.724 271.724 0 0 1-5.037-15.851c-5.022-17.583-8.712-42.032-10.492-58.765a.272.272 0 0 1-.016-.112c-15.562 9.786-35.006 20.118-40.605 14.567-7.011-6.931 10.043-36.273 24.481-55.236.434-.577.867-1.139 1.3-1.7 40.621-52.172 98.632-70.172 119.247-76.269C280.41-11.69 374.5 15.518 374.293 25.9a1.138 1.138 0 0 1-.177.546c-.015.016-.015.032-.032.032-1.7 2.727-14.711 7.668-42.8 11.679-1.572.24-3.193.449-4.861.674a281.569 281.569 0 0 1 36.417 55.636c2.984 6.017 14.054 28.894 22.268 62.263a351.408 351.408 0 0 1 9.882 76.7c2.23 62.006 27.161 102.611 44.616 143.263 11.069 25.765 19.123 51.53 16.508 82.8-2.278 27.337-13.332 65.84-54.626 110.487 8.583 1.492 19.925 4.749 25.989 11.391.947 1.026 9.883 10.829 7.011 17.534-4.364 10.172-33.289 6.738-42.081 5.84-57.225-5.9-103.765 7.6-152.937 15.016-.9.129-1.8.273-2.711.4a95 95 0 0 0 11.936 27.033 82.343 82.343 0 0 0 5.134 7.107c9.818 12.417 22.749 22.283 37.476 29.5a140.573 140.573 0 0 0 32.6 11.117 156.166 156.166 0 0 0 42.305 3 149.786 149.786 0 0 0 27.161-4.235 129.374 129.374 0 0 0 39.867-17.342c.208-.129.4-.273.609-.4a131.916 131.916 0 0 0 13.717-10.668 144.5 144.5 0 0 0 34.936-46.526 111.343 111.343 0 0 0 7.685-22.476 92.542 92.542 0 0 0 2.23-21.561c-.225-12.594-3.193-23.262-5.92-33.129-4.123-15.048-7.668-28.219.08-43.428 10.717-21.064 33.819-27.449 35.247-27.834 20.085-5.3 38.39 2.615 45.609 7.107 8.535 5.31 15.5 14.534 20.664 26.358 18.194 41.551 14.489 115.333-19.105 165.616Z" style="fill:#f9c898"/><path d="M131.57 275.532c-3.98-7.369 44.484-56.524 110.566-65.845 12-1.692 68.579-9.673 102.851 24.373 10.5 10.432 22.264 28.143 17.179 35.741-5.4 8.072-25.275-2.068-60.986-7.652-59.8-9.35-113.616 1.953-132.507 5.92-26.192 5.5-35.513 10.406-37.103 7.463Zm-22.199 59.625c59.358-44.181 125.438-40.743 141.375-39.481a207.384 207.384 0 0 1 85.138 25.555c33.017 18.629 72.686 53.583 65.946 67.585-6.459 13.417-49.409-5.121-124.93-11.469-120.341-10.115-198.846 21.192-206.032 1.638-4.377-11.911 21.848-31.431 38.503-43.828ZM87.54 443.233c5.051-19.8 69.628-18.7 133.532-17.613 67.274 1.145 125.63 2.138 129.845 20.89 3.533 15.719-32.763 35.969-44.647 42.6-46.416 25.9-92.36 21.484-108.955 19.661-16.629-1.826-48.759-5.753-79.464-28.672-13.475-10.06-33.362-24.899-30.311-36.866ZM224.572 80.732c-2.11.837-4.941 2.927-11.469 32.769-8.986 41.078-13.479 61.617-4.915 67.175 6.564 4.26 13.318-4.988 38.268-10.895 27.467-6.5 38.076.257 42.833-6.308 12.653-17.461-43.689-91.087-64.717-82.741Z" style="fill:#b14317"/><path d="M568.99 669.4c-60.985 91.274-181.356 83.053-199 81.768-27.5-2-92.955-11.661-146.923-64.9a227.516 227.516 0 0 1-54.614-86.836c11.741 19.985 57.011 91.568 147.461 119.057 19.606 5.958 143.775 40.832 223.372-42.053 63.222-65.836 50.881-158.748 48.814-172.652 18.189 41.551 14.484 115.333-19.11 165.616Z" style="fill:#e6790d;opacity:.56"/><path d="M164.309 582.043c3.67-26.376 19.126-46.724 39.1-51.427 12.2-2.872 30.375-.921 35.772 9.011 5.251 9.666-5.449 19.8-6.008 45.6a97.124 97.124 0 0 0 1.639 19.934 48.977 48.977 0 0 0-21.573 11.469c-15.422 14.258-15.833 33.853-15.838 37.684a231.176 231.176 0 0 1-33.092-72.274Zm269.535 93.898a50 50 0 0 0 6.626 21.259c9.1 15.257 23.054 18.273 21.931 23.7-1.284 6.24-21.482 10.652-38.247 4.748-19.412-6.834-28.139-25.331-30.786-31.957Zm104.343-7.428c-20.085 16.636-57.112 23.5-82.46 4.363a54.176 54.176 0 0 1-8.166-7.6 144.5 144.5 0 0 0 34.939-46.529c9.482 13.444 19.637 20.182 29.07 23.423 17.246 5.92 35.7.642 38.5 7.909 2.508 6.53-9.925 16.829-11.883 18.434Zm35.503-95.022c-2.551 4.716-15.289 26.663-42.193 31.267-19.01 3.241-34.155-4.059-41.31-8.487a92.542 92.542 0 0 0 2.23-21.561c-.225-12.594-3.193-23.262-5.92-33.129 13.284 6.257 28.588 10.075 43.637 5.824 25.46-7.171 35.968-31.124 45.337-27.032 9.257 4.058 9.417 32.502-1.781 53.118ZM374.9 732.2c-4.428 6.192-25.8 2.936-38.1-9.289-7.2-7.155-11.7-17.775-12.9-28a156.166 156.166 0 0 0 42.305 3 85.48 85.48 0 0 0 3.369 15.032c3.837 12.089 7.655 15.987 5.326 19.257Zm-80.244-19.874c-5.037 4.3-27.064-6.818-36.61-24.241-6.048-11.054-6.241-23.134-4.219-33.786 9.818 12.417 22.749 22.283 37.476 29.5a62.591 62.591 0 0 0 .449 7.042c1.448 11.827 5.936 18.886 2.904 21.485Z" style="fill:#b14317"/><path d="M181.618 632.577q-2.238-4.332-4.22-8.519a256.723 256.723 0 0 1-49.765-6.466c-37.508-8.631-51.818-20.406-87.674-19.283-12.161.385-32.615 2.422-37.412-7.011-3.129-6.16 1.845-14.519 3.513-17.535 6.113-11.037 22.46-15.353 31.589-17A230.689 230.689 0 0 1 11.05 490.9a215.526 215.526 0 0 1-4.25-25.266c-1.444-13.348-3.4-32.984 1.669-57.578a122.116 122.116 0 0 1 8.422-26.39.06.06 0 0 1 .016-.049c8.134-18.08 21.369-36.545 44.263-71.647 0-.016.016-.016.016-.032l1.2-1.829a2585.598 2585.598 0 0 0 28.765-45.177 61.476 61.476 0 0 0 7.091-16.284 62.014 62.014 0 0 0-1.363-36.948 271.724 271.724 0 0 1-5.037-15.851c-5.022-17.583-8.712-42.032-10.492-58.765 6.112-4.652 15.048-10.249 20.133-13.666-.112 14.984-1.7 40.687 9.081 61.3 9.163 17.511 18.979 24.113 23.487 35.5 17.55 44.391-85.493 88.637-104.857 179.135-10.38 48.5 3.722 108.226 43.685 145.814 33.08 31.124 73.492 37.3 91.428 38.872 4.926 10.703 12.931 29.698 17.311 50.538ZM456.112 459.49c-2.278 27.337-13.332 65.84-54.626 110.487 8.583 1.492 19.925 4.749 25.989 11.391.947 1.026 9.883 10.829 7.011 17.534-4.364 10.172-33.289 6.738-42.081 5.84-57.225-5.9-103.765 7.6-152.937 15.016-3.93-9.834-6.417-23.7-3.561-42.995 15.144.385 81.337.4 134.343-49.7 11.776-11.133 38.182-36.08 47.247-75.642 15.208-66.337-26.373-151.024-44.5-185.953-3.9-7.512-16.511-25.13-17.826-43.148-.935-12.809 7.137-29.564 7.991-32.767 9.69-36.32 6.277-98.034-36.738-150.723a281.569 281.569 0 0 1 36.417 55.636c2.984 6.017 14.054 28.894 22.268 62.263a351.408 351.408 0 0 1 9.882 76.7c2.23 62.006 27.161 102.611 44.616 143.263 11.066 25.765 19.12 51.53 16.505 82.798Z" style="fill:#e6790d;opacity:.56"/><path d="M346.687 293.025c-.381 25.272-34 27.049-71.39 72.889-39.805 48.8-35.615 88.371-56.83 90.412-23.344 2.245-49.315-43.651-56.831-80.584-2.33-11.449-11.564-56.826 18.083-96.87 3.372-4.555 39.631-51.893 93.785-44.83 35.449 4.624 73.596 31.911 73.183 58.983ZM290.245 41.819c18.134 29.542-11.9 82.906-37.137 85.2-13.326 1.21-16.543-12.641-46.422-29.492-33.817-19.071-54.551-15.345-56.8-26.215-2.821-13.639 27-33.267 53.693-41.5 21.39-6.595 70.369-14.543 86.666 12.007Zm215.18 463.948c-.333 8.545 16.284 9.615 30.584 28.945 14.407 19.475 11.768 37.624 15.838 37.684 7.912.116 28.932-68.314 4.915-84.106-16.486-10.84-50.862 5.31-51.337 17.477Z" style="fill:#fff;opacity:.44"/><path d="M46.4 152.158q-4.2 0-6.431-2.207C27.987 138.071 65.166 89.988 65.543 89.5c27.85-35.781 68.423-61.754 120.59-77.2 84.137-24.907 171.35-6.42 188.45 6.632 2.383 1.82 3.523 3.632 3.483 5.541-.09 4.294-3.874 8.918-48.046 14.076a2.656 2.656 0 1 1-.616-5.277c35.315-4.124 41.961-7.816 43.2-9-2.256-3.254-21.444-12.192-58.787-16.728-24.6-2.989-73.713-5.684-126.18 9.849C136.56 32.523 96.891 57.88 69.736 92.768 51.849 115.75 39.2 141.706 43.714 146.177c3.562 3.533 22.039-3.443 55.3-26.966a2.657 2.657 0 0 1 3.068 4.338c-26.911 19.032-45.566 28.609-55.682 28.609Z" style="fill:#9f5517"/><path d="M403.843 565.433a85.088 85.088 0 0 1-17.477 14.2c-13.308 8.126-23.073 8.908-46.831 15.565-5 1.4-34.709 9.725-34.251 11.907.428 2.045 25.312-5.158 61.558-5.9 39.769-.813 63.766 6.9 67.644-2.3 2.126-5.044-3.092-12.221-7.011-17.534a43.892 43.892 0 0 0-23.632-15.938ZM40.386 554.168c-22.175 2.76-36.647 14.7-36.92 26.256-.191 8.1 6.631 14.165 7.018 14.5 8.527 7.389 17.459 2.456 42.053 3.277a282.209 282.209 0 0 1 40.963 4.915c-1.128-.994-2.853-2.5-4.979-4.306-14.247-12.092-21.577-16.344-28.882-22.523a99.316 99.316 0 0 1-19.253-22.119Z" style="fill:#683315"/><path d="M8.308 471.959c3.46 12.454 23.79 81.053 90.446 112.52a159.84 159.84 0 0 0 69.7 14.951l8.942 24.628a193.873 193.873 0 0 1-69.237-13.526c-2.925-1.16-23.225-9.327-39.8-21.588C20.437 553.5 10.454 488.865 8.308 471.959Z" style="fill:#e6790d"/><path d="M25.932 533.266a2.659 2.659 0 0 1-2.434-1.59A257.2 257.2 0 0 1 9.839 492.2C1.9 461.128.924 431.307 7.006 405.96a206.076 206.076 0 0 1 7.377-25.177c.012-.035.025-.07.038-.1 4.723-12.506 11.371-24 21.258-39.626 5.315-8.4 14.467-20.711 22.541-31.569l.736-.989c.032-.049.065-.1.1-.144 4.51-6.049 8.488-11.4 11.493-15.666 9.265-13.105 16.371-25.264 21.122-36.142a99.216 99.216 0 0 0 4.029-10.68 60.468 60.468 0 0 0 3.122-17.428c-.612-13.516-4.389-25.5-8.388-38.193-4.985-15.819-10.139-32.177-10.157-53.665a2.657 2.657 0 0 1 2.655-2.659 2.658 2.658 0 0 1 2.657 2.654c.017 20.674 5.047 36.637 9.911 52.073 4.113 13.053 8 25.383 8.631 39.624v.14a65.532 65.532 0 0 1-3.365 19.039 104.336 104.336 0 0 1-4.24 11.225c-4.892 11.2-12.176 23.676-21.647 37.072-3.021 4.287-6.992 9.632-11.492 15.667a1.72 1.72 0 0 1-.1.139l-.818 1.1c-8.018 10.783-17.107 23-22.315 31.24-11.432 18.069-16.676 27.822-20.752 38.6-.012.038-.026.076-.04.114a200.893 200.893 0 0 0-7.2 24.6c-5.882 24.51-4.909 53.447 2.815 83.685a251.916 251.916 0 0 0 13.386 38.646 2.658 2.658 0 0 1-2.431 3.726Z" style="fill:#9f5517"/><path d="M50.87 576.4a2.652 2.652 0 0 1-2.1-1.022c-8.968-11.487-17.944-27.008-25.275-43.7a2.657 2.657 0 0 1 4.865-2.136c7.159 16.3 15.9 31.422 24.6 42.572a2.657 2.657 0 0 1-2.09 4.286Z" style="fill:#623310"/><path d="M177.33 625.225h-.1a259.018 259.018 0 0 1-49.069-6.512c-13.286-3.058-23.81-6.546-33.095-9.625-17.378-5.76-31.1-10.3-53.9-9.6-1.306.04-2.709.1-4.178.163-12.927.558-30.631 1.317-35.681-8.629-3.635-7.161 1.241-15.888 3.323-19.614l.23-.412c8.059-14.535 24.68-18.313 31.453-19.262a2.656 2.656 0 1 1 .739 5.266c-4.669.656-20.451 3.786-27.544 16.577L9.27 574c-1.669 2.987-5.577 9.98-3.224 14.617 3.5 6.893 19.877 6.19 30.716 5.726a362.69 362.69 0 0 1 4.239-.166c23.728-.747 38.567 4.173 55.737 9.864 9.174 3.041 19.572 6.488 32.615 9.49a253.557 253.557 0 0 0 48.073 6.38 2.657 2.657 0 0 1-.1 5.312Z" style="fill:#623310"/><path d="M456 424.409c-1.937 19.842-9.212 64.728-43.694 104.773-64.667 75.1-166.013 64.652-175.721 63.489l2.881 27.087a356.206 356.206 0 0 1 56.409-13.815c29.682-4.711 42.061-2.713 63.182-10.4 13.555-6.49 57.433-29.593 81.921-81.922A171.314 171.314 0 0 0 456 424.409Z" style="fill:#e6790d"/><path d="M389.73 584.295a2.657 2.657 0 0 1-1.847-4.567 285.261 285.261 0 0 0 34.534-39.7 2.657 2.657 0 1 1 4.336 3.072 290.642 290.642 0 0 1-35.177 40.448 2.644 2.644 0 0 1-1.846.747Z" style="fill:#623310"/><path d="M424.582 544.221a2.658 2.658 0 0 1-2.165-4.193c19.027-26.849 29.852-54.516 32.173-82.231 3.333-39.785-11.228-71.167-26.645-104.392-15.311-33-32.664-70.4-34.493-121.352l-.08-2.379a345.175 345.175 0 0 0-9.728-73.784 306.7 306.7 0 0 0-22.067-61.714 280.107 280.107 0 0 0-45.8-66.169 2.656 2.656 0 1 1 3.893-3.615 285.427 285.427 0 0 1 46.669 67.423 312.133 312.133 0 0 1 22.461 62.806 350.333 350.333 0 0 1 9.881 74.883l.077 2.36c1.791 49.879 18.167 85.173 34 119.3 15.722 33.881 30.571 65.885 27.121 107.073-2.4 28.675-13.55 57.225-33.133 84.859a2.657 2.657 0 0 1-2.164 1.125Z" style="fill:#9f5517"/><path d="M238.791 621.217a2.657 2.657 0 0 1-.385-5.285c12.131-1.792 24.332-4.017 36.132-6.169 36.927-6.735 75.112-13.7 119.264-9.142l1 .1c28.87 3.032 36.8-.7 38.369-4.354 1.518-3.534-2.188-9.927-6.534-14.695-8.727-9.572-21.364-9.511-25.032-9.264a2.63 2.63 0 0 1-2.829-2.472 2.657 2.657 0 0 1 2.473-2.829c4.263-.3 18.985-.344 29.314 10.983 3.32 3.644 10.692 12.918 7.491 20.374-4.419 10.294-25.733 9.437-43.806 7.542l-.991-.1c-43.395-4.481-81.2 2.416-117.765 9.084-11.843 2.16-24.088 4.394-36.309 6.2a2.592 2.592 0 0 1-.392.027Z" style="fill:#623310"/><path d="M389.243 753.886c-51.663 0-101.9-14.653-140.662-41.986-52.2-36.806-76.49-90.11-87.676-128.345a2.657 2.657 0 0 1 5.1-1.492c10.948 37.423 34.692 89.571 85.638 125.494 50.023 35.272 119.681 48.931 186.34 36.537 56.633-10.53 103.986-38.83 129.918-77.645 29.369-43.958 34.122-102.553 25.805-141.123-4.914-22.785-14.342-39.521-26.549-47.123-2.109-1.314-21.251-12.668-43.535-6.792-.945.25-23.325 6.372-33.557 26.465-7.331 14.4-3.832 27.121.219 41.853 2.666 9.694 5.687 20.68 5.915 33.461.774 43.355-30.75 84.244-60.367 103.89-30.263 20.073-71.7 27.2-110.835 19.066-34.023-7.071-61.516-24.469-77.414-48.986-12.586-19.41-18.036-44.013-15.761-71.148a2.657 2.657 0 0 1 5.3.443c-2.176 25.952 2.985 49.4 14.924 67.814 15.119 23.318 41.413 39.894 74.037 46.674 37.781 7.855 77.71 1.016 106.816-18.292 28.448-18.869 58.73-58.013 57.991-99.365-.216-12.113-3.016-22.3-5.725-32.147-4.164-15.14-8.1-29.441.169-45.673 11.107-21.812 34.324-28.5 36.935-29.193 18.559-4.894 37.294.94 47.7 7.421 13.436 8.369 23.711 26.306 28.931 50.512 8.554 39.664 3.652 99.944-26.581 145.2-26.722 40-75.332 69.125-133.365 79.916a272.247 272.247 0 0 1-49.711 4.564Z" style="fill:#623310"/></g></svg>