<svg xmlns="http://www.w3.org/2000/svg" width="375" height="812" fill="none" viewBox="0 0 375 812"><g opacity=".2"><g clip-path="url(#clip0_1507_2295)"><rect width="375" height="812" fill="#18181B" rx="30"/><g filter="url(#filter0_f_1507_2295)" opacity=".7"><circle cx="294" cy="101" r="200" fill="url(#paint0_linear_1507_2295)" transform="rotate(30 294 101)"/></g><g filter="url(#filter1_f_1507_2295)" opacity=".7"><circle cx="294" cy="101" r="200" fill="url(#paint1_linear_1507_2295)" transform="rotate(30 294 101)"/></g><g filter="url(#filter2_f_1507_2295)" opacity=".7"><path fill="url(#paint2_linear_1507_2295)" d="M374.205 518.795C318.977 614.453 196.659 647.228 101 592C5.34148 536.772 -27.4336 414.453 27.7949 318.795C83.0234 223.136 205.341 190.361 301 245.59C396.659 300.818 429.434 423.136 374.205 518.795Z"/></g><g clip-path="url(#clip1_1507_2295)" opacity=".16"><path stroke="#fff" stroke-miterlimit="10" stroke-width=".5" d="M299.597 -159.321C524.092 -198.014 362.606 168.366 256.666 49.4659C203.954 -9.69331 97.5578 107.159 61.4515 35.5643C25.3127 -35.9853 87.5287 -63.9446 126.201 -131.56C174.148 -216.162 240.15 -149.077 299.597 -159.321V-159.321Z" opacity=".04"/><path stroke="#FEFFFF" stroke-miterlimit="10" stroke-width=".5" d="M299.027 -163.62C514.01 -192.349 369.732 159.475 258.473 52.4611C203.633 -0.284799 90.9862 100.881 60.1354 29.3337C29.23 -42.1177 86.7039 -74.4977 127.547 -135.47C178.48 -211.51 240.469 -155.798 299.032 -163.622L299.027 -163.62Z" opacity=".07"/><path stroke="#FEFEFF" stroke-miterlimit="10" stroke-width=".5" d="M298.458 -167.926C503.692 -187.013 377.092 150.631 260.279 55.444C203.435 9.12408 84.4106 94.587 58.8133 23.0937C33.1338 -48.2616 85.7239 -85.1165 128.882 -139.386C182.615 -206.94 240.694 -162.556 298.456 -167.931L298.458 -167.926Z" opacity=".11"/><path stroke="#FDFEFF" stroke-miterlimit="10" stroke-width=".5" d="M297.888 -172.224C493.136 -182.044 384.72 141.793 262.084 58.4349C203.367 18.5229 77.8359 88.3056 57.4941 16.8589C37.0433 -54.3954 84.7101 -95.7153 130.219 -143.297C186.709 -202.352 240.834 -169.361 297.885 -172.229L297.888 -172.224Z" opacity=".15"/><path stroke="#FDFEFF" stroke-miterlimit="10" stroke-width=".5" d="M297.317 -176.523C482.365 -177.515 392.619 132.883 263.891 61.4303C203.434 27.8754 71.261 82.0238 56.1804 10.6333C40.9554 -60.5248 83.669 -106.305 131.565 -147.194C190.766 -197.737 240.908 -176.213 297.32 -176.518L297.317 -176.523Z" opacity=".19"/><path stroke="#FCFEFF" stroke-miterlimit="10" stroke-width=".5" d="M296.744 -180.826C471.411 -173.469 400.756 123.803 265.687 64.4191C203.611 37.1263 64.6784 75.7402 54.8485 4.3992C44.8542 -66.6656 82.5645 -116.904 132.895 -151.108C194.754 -193.152 240.892 -183.175 296.742 -180.818L296.744 -180.826Z" opacity=".23"/><path stroke="#FCFEFF" stroke-miterlimit="10" stroke-width=".5" d="M296.174 -185.124C460.321 -169.953 409.103 114.492 267.492 67.4096C203.892 46.2651 58.0961 69.4564 53.5295 -1.83594C48.7637 -72.7998 81.4338 -127.526 134.233 -155.019C198.695 -188.593 240.826 -190.237 296.169 -185.121L296.174 -185.124Z" opacity=".26"/><path stroke="#FCFEFF" stroke-miterlimit="10" stroke-width=".5" d="M295.601 -189.428C449.145 -167.002 417.573 104.89 269.293 70.3954C204.227 55.2624 51.5184 63.1698 52.2073 -8.0759C52.6674 -78.9436 80.2603 -138.188 135.567 -158.935C202.593 -184.086 240.712 -197.447 295.593 -189.43L295.601 -189.428Z" opacity=".3"/><path stroke="#FBFDFF" stroke-miterlimit="10" stroke-width=".5" d="M295.03 -193.727C437.962 -164.623 426.092 94.9677 271.101 73.3905C204.585 64.13 44.9439 56.8877 50.8863 -14.3038C56.575 -85.0705 79.0722 -148.888 136.908 -162.842C206.471 -179.626 240.595 -204.81 295.03 -193.727V-193.727Z" opacity=".34"/><path stroke="#FBFDFF" stroke-miterlimit="10" stroke-width=".5" d="M294.457 -198.03C426.847 -162.821 434.57 84.7271 272.902 76.3765C204.925 72.866 38.3661 50.6013 49.5668 -20.5387C60.4863 -91.2121 77.8801 -159.649 138.245 -166.754C210.343 -175.24 240.493 -212.382 294.457 -198.03Z" opacity=".38"/><path stroke="#FAFDFF" stroke-miterlimit="10" stroke-width=".5" d="M293.887 -202.328C415.899 -161.562 442.941 74.2115 274.707 79.3672C205.211 81.4972 31.7888 44.3148 48.2479 -26.7737C64.3959 -97.3461 76.7055 -170.46 139.583 -170.665C214.239 -170.906 240.463 -220.177 293.887 -202.328Z" opacity=".41"/><path stroke="#FAFDFF" stroke-miterlimit="10" stroke-width=".5" d="M293.313 -206.632C405.218 -160.793 451.157 63.4614 276.511 82.3577C205.431 90.0493 25.2138 38.033 46.9285 -33.0089C68.3024 -103.485 75.5583 -181.312 140.926 -174.579C218.171 -166.62 240.568 -228.244 293.318 -206.634L293.313 -206.632Z" opacity=".45"/><path stroke="#F9FDFF" stroke-miterlimit="10" stroke-width=".5" d="M292.743 -210.93C394.921 -160.415 459.197 52.5411 278.316 85.3482C205.578 98.5405 18.6364 31.7462 45.6045 -39.2414C72.2071 -109.617 74.4453 -192.184 142.259 -178.488C222.135 -162.359 240.868 -236.579 292.74 -210.935L292.743 -210.93Z" opacity=".49"/><path stroke="#F9FCFF" stroke-miterlimit="10" stroke-width=".5" d="M292.17 -215.233C385.107 -160.321 467.043 41.4997 280.117 88.3342C205.64 106.997 12.0537 25.4628 44.2823 -45.481C76.1156 -115.763 73.3689 -203.07 143.593 -182.404C226.143 -158.109 241.447 -245.204 292.167 -215.238L292.17 -215.233Z" opacity=".53"/><path stroke="#F8FCFF" stroke-miterlimit="10" stroke-width=".5" d="M291.6 -219.532C375.88 -160.346 474.718 30.3956 281.924 91.3296C205.631 115.442 5.47933 19.181 42.9691 -51.7065C80.0281 -121.892 72.3236 -213.949 144.944 -186.304C230.202 -153.851 242.406 -254.081 291.607 -219.53L291.6 -219.532Z" opacity=".56"/><path stroke="#F8FCFF" stroke-miterlimit="10" stroke-width=".5" d="M291.029 -223.831C367.304 -160.32 482.231 19.2684 283.729 94.32C205.551 123.877 -1.09815 12.8942 41.6451 -57.939C83.9328 -128.024 71.2983 -224.827 146.277 -190.213C234.274 -149.593 243.776 -263.177 291.032 -223.826L291.029 -223.831Z" opacity=".6"/><path stroke="#FFFFFA" stroke-miterlimit="10" stroke-width=".5" d="M333.829 74.3848C356.701 419.892 -86.966 35.5961 91.4872 -60.0294C180.85 -107.921 32.8567 -295.247 128.309 -328.182C223.76 -361.116 241.868 -258.515 328.229 -181.45C436.081 -85.2073 327.918 -14.9018 333.826 74.3799L333.829 74.3848Z"/><g style="mix-blend-mode:hard-light" opacity=".95"><path stroke="#FFFFFA" stroke-miterlimit="10" stroke-width=".5" d="M339.252 75.0923C350.946 404.484 -77.065 48.5597 87.4888 -58.5491C169.248 -111.766 41.7089 -302.28 136.245 -327.845C230.736 -353.467 255.33 -256.261 332.857 -178.193C429.933 -81.1329 336.16 -11.8602 339.247 75.0951L339.252 75.0923Z"/></g><g style="mix-blend-mode:hard-light" opacity=".9"><path stroke="#FFFFFB" stroke-miterlimit="10" stroke-width=".5" d="M344.67 75.8021C345.52 388.846 -67.3787 61.8472 83.4929 -57.0644C157.563 -115.44 50.556 -309.311 144.187 -327.511C237.708 -345.823 268.505 -253.765 337.494 -174.942C423.433 -76.7464 344.446 -8.90988 344.675 75.7993L344.67 75.8021Z"/></g><g style="mix-blend-mode:hard-light" opacity=".85"><path stroke="#FFFFFB" stroke-miterlimit="10" stroke-width=".5" d="M350.091 76.5043C340.484 372.996 -57.8227 75.5145 79.4973 -55.5797C145.847 -118.922 59.4034 -316.341 152.121 -327.179C244.678 -338.183 281.806 -251.431 342.116 -171.694C417.082 -72.5748 352.764 -6.0493 350.091 76.5043V76.5043Z"/></g><g style="mix-blend-mode:hard-light" opacity=".8"><path stroke="#FFFFFB" stroke-miterlimit="10" stroke-width=".5" d="M355.514 77.2116C335.895 356.934 -48.2808 89.6174 75.5039 -54.1023C134.142 -122.184 68.2509 -323.371 160.058 -326.842C251.651 -330.539 295.105 -249.135 346.748 -168.44C410.744 -68.4364 361.161 -3.26605 355.514 77.2116Z"/></g><g style="mix-blend-mode:hard-light" opacity=".75"><path stroke="#FFFFFC" stroke-miterlimit="10" stroke-width=".5" d="M360.932 77.9213C331.829 340.679 -38.6212 104.137 71.5083 -52.6177C122.524 -125.237 77.1031 -330.405 167.995 -326.506C258.618 -322.892 308.417 -246.873 351.376 -165.183C404.403 -64.3483 369.629 -0.562766 360.935 77.9262L360.932 77.9213Z"/></g><g style="mix-blend-mode:hard-light" opacity=".7"><path stroke="#FFFFFC" stroke-miterlimit="10" stroke-width=".5" d="M366.355 78.6288C328.348 324.268 -28.713 119.032 67.5129 -51.1326C111.039 -128.107 85.9506 -337.435 175.934 -326.177C265.596 -315.25 321.739 -244.661 356.006 -161.933C398.094 -60.3171 378.207 2.05141 366.355 78.6288V78.6288Z"/></g><g style="mix-blend-mode:hard-light" opacity=".65"><path stroke="#FFFFFC" stroke-miterlimit="10" stroke-width=".5" d="M371.773 79.3388C325.525 307.743 -18.4489 134.206 63.5145 -49.6526C99.716 -130.851 94.798 -344.465 183.871 -325.84C272.569 -307.606 335.101 -242.479 360.635 -158.684C391.827 -56.3363 386.914 4.59729 371.778 79.336L371.773 79.3388Z"/></g><g style="mix-blend-mode:hard-light" opacity=".6"><path stroke="#FFFFFD" stroke-miterlimit="10" stroke-width=".5" d="M377.197 80.0457C323.409 291.171 -7.77079 149.536 59.519 -48.168C88.5712 -133.524 103.646 -351.496 191.808 -325.503C279.542 -299.962 348.5 -240.325 365.263 -155.427C385.611 -52.3789 395.778 7.11084 377.197 80.0457Z"/></g><g style="mix-blend-mode:hard-light" opacity=".55"><path stroke="#FFFFFD" stroke-miterlimit="10" stroke-width=".5" d="M382.62 80.7532C322.046 274.626 3.31988 164.92 55.5233 -46.6828C77.5981 -136.179 112.498 -358.529 199.742 -325.171C286.506 -292.319 361.955 -238.197 369.892 -152.177C379.464 -48.4478 404.848 9.60238 382.62 80.7532Z"/></g><g style="mix-blend-mode:hard-light" opacity=".5"><path stroke="#FFFFFD" stroke-miterlimit="10" stroke-width=".5" d="M388.038 81.4627C321.447 258.214 14.8023 180.251 51.5249 -45.2032C66.7844 -138.861 121.345 -365.56 207.679 -324.835C293.479 -284.676 375.468 -236.057 374.52 -148.921C373.381 -44.5087 414.158 12.1365 388.038 81.4627V81.4627Z"/></g><g style="mix-blend-mode:hard-light" opacity=".45"><path stroke="#FFFFFD" stroke-miterlimit="10" stroke-width=".5" d="M393.461 82.1701C321.603 242.066 26.6218 195.46 47.5295 -43.7181C56.0854 -141.603 130.193 -372.59 215.621 -324.501C300.457 -277.034 389.043 -233.901 379.15 -145.671C367.371 -40.5532 423.754 14.7644 393.461 82.1701V82.1701Z"/></g><g style="mix-blend-mode:hard-light" opacity=".4"><path stroke="#FFFFFE" stroke-miterlimit="10" stroke-width=".5" d="M398.884 82.8774C322.458 226.31 38.7104 210.507 43.5388 -42.236C45.4847 -144.421 139.04 -379.62 223.555 -324.169C307.422 -269.392 402.652 -231.719 383.78 -142.422C361.404 -36.5578 433.681 17.5708 398.882 82.8726L398.884 82.8774Z"/></g><g style="mix-blend-mode:hard-light" opacity=".35"><path stroke="#FFFFFE" stroke-miterlimit="10" stroke-width=".5" d="M404.302 83.5873C323.887 211.122 50.9887 225.366 39.5353 -40.7532C34.9544 -147.319 147.892 -386.653 231.492 -323.832C314.397 -261.743 416.296 -229.487 388.407 -139.165C355.472 -32.512 443.964 20.6818 404.302 83.5873V83.5873Z"/></g><g style="mix-blend-mode:hard-light" opacity=".3"><path stroke="#FFFFFE" stroke-miterlimit="10" stroke-width=".5" d="M409.725 84.2941C325.727 196.655 63.4092 240.033 35.5397 -39.2687C24.4624 -150.297 156.739 -393.684 239.429 -323.496C321.37 -254.099 429.958 -227.213 393.039 -135.911C349.571 -28.4131 454.638 24.2213 409.725 84.2941V84.2941Z"/></g><g style="mix-blend-mode:hard-light" opacity=".25"><path stroke="#fff" stroke-miterlimit="10" stroke-width=".5" d="M415.144 85.0045C327.725 183.081 75.92 254.532 31.5441 -37.7835C14.0006 -153.357 165.59 -400.709 247.368 -323.166C328.339 -246.459 443.627 -224.904 397.666 -132.666C343.661 -24.2751 465.657 28.3258 415.146 84.9968L415.144 85.0045Z"/></g><g style="mix-blend-mode:hard-light" opacity=".2"><path stroke="#fff" stroke-miterlimit="10" stroke-width=".5" d="M420.567 85.7113C329.558 170.534 88.4809 268.859 27.5456 -36.3038C3.54943 -156.489 174.442 -407.743 255.304 -322.83C335.312 -238.815 457.291 -222.56 402.294 -129.409C337.748 -20.085 476.948 33.1592 420.564 85.7065L420.567 85.7113Z"/></g><path stroke="#fff" stroke-miterlimit="10" stroke-width=".5" d="M145.645 88.651C-176.326 240.075 -25.1604 -360.172 155.39 -211.293C245.801 -136.741 353.275 -358.843 432.274 -272.466C511.274 -186.089 421.262 -129.448 389.658 -11.7704C350.186 135.193 228.849 49.519 145.642 88.6462L145.645 88.651Z" opacity=".2"/><path stroke="#fff" stroke-miterlimit="10" stroke-width=".5" d="M147.643 94.5138C-163.993 228.308 -32.6671 -345.074 151.981 -214.865C243.817 -150.1 364.437 -352.303 435.882 -264.141C507.353 -176.058 425.762 -114.706 388.814 -5.78103C343.223 130.36 230.085 59.1228 147.648 94.511L147.643 94.5138Z" opacity=".21"/><path stroke="#fff" stroke-miterlimit="10" stroke-width=".5" d="M149.646 100.374C-151.247 216.819 -40.5084 -330.061 148.573 -218.444C241.666 -163.486 375.598 -345.763 439.484 -255.826C503.427 -166.037 429.847 -100.145 387.964 0.198328C335.748 125.303 231.431 68.7147 149.643 100.369L149.646 100.374Z" opacity=".23"/><path stroke="#fff" stroke-miterlimit="10" stroke-width=".5" d="M151.641 106.231C-138.086 205.68 -48.7395 -315.051 145.16 -222.021C239.327 -176.841 386.752 -339.226 443.084 -247.503C499.498 -156.009 434.166 -85.5385 387.111 6.1853C328.564 120.311 232.895 78.3421 151.637 106.234L151.641 106.231Z" opacity=".24"/><path stroke="#fff" stroke-miterlimit="10" stroke-width=".5" d="M153.644 112.091C-124.474 194.973 -57.3533 -299.929 141.76 -225.598C236.814 -190.115 397.924 -332.692 446.694 -239.186C495.579 -145.986 438.534 -70.96 386.269 12.1666C321.434 115.289 234.5 87.991 153.644 112.091V112.091Z" opacity=".25"/><path stroke="#FFFEFF" stroke-miterlimit="10" stroke-width=".5" d="M155.64 117.949C-110.437 184.778 -66.3433 -284.583 138.347 -229.175C234.108 -203.252 409.078 -326.154 450.299 -230.866C491.658 -135.955 442.941 -56.391 385.422 18.151C314.362 110.245 236.231 97.7106 155.643 117.953L155.64 117.949Z" opacity=".26"/><path stroke="#FFFEFF" stroke-miterlimit="10" stroke-width=".5" d="M157.643 123.808C-95.9769 175.181 -75.6249 -268.9 134.939 -232.754C231.267 -216.22 420.242 -319.622 453.901 -222.551C487.732 -125.934 447.405 -41.8356 384.572 24.1305C307.358 105.195 238.079 107.511 157.635 123.806L157.643 123.808Z" opacity=".28"/><path stroke="#FFFEFF" stroke-miterlimit="10" stroke-width=".5" d="M159.641 129.671C-81.1448 166.261 -85.0948 -252.792 131.532 -236.334C228.34 -228.977 431.401 -313.088 457.506 -214.231C483.808 -115.908 451.934 -27.2591 383.725 30.1147C300.437 100.175 240.064 117.446 159.638 129.666L159.641 129.671Z" opacity=".29"/><path stroke="#FFFEFF" stroke-miterlimit="10" stroke-width=".5" d="M161.641 135.526C-65.9966 158.092 -94.6275 -236.22 128.127 -239.908C225.388 -241.518 442.563 -306.548 461.116 -205.914C479.889 -105.885 456.53 -12.6441 382.883 36.096C293.59 95.1961 242.149 127.543 161.641 135.526V135.526Z" opacity=".3"/><path stroke="#FFFEFF" stroke-miterlimit="10" stroke-width=".5" d="M163.64 141.388C-50.6121 150.724 -104.092 -219.183 124.719 -243.488C222.468 -253.871 453.727 -300.016 464.721 -197.593C475.968 -95.854 461.159 2.02941 382.041 42.0775C286.798 90.289 244.32 137.869 163.649 141.383L163.64 141.388Z" opacity=".31"/><path stroke="#FFFEFF" stroke-miterlimit="10" stroke-width=".5" d="M165.64 147.243C-35.1199 144.194 -113.381 -201.729 121.306 -247.065C219.613 -266.055 464.881 -293.479 468.318 -189.276C472.037 -85.8304 465.798 16.7749 381.186 48.0595C280.012 85.4692 246.52 148.469 165.64 147.243V147.243Z" opacity=".33"/><path stroke="#FFFEFF" stroke-miterlimit="10" stroke-width=".5" d="M167.643 153.103C-19.653 138.506 -122.417 -183.937 117.901 -250.639C216.875 -278.112 476.043 -286.94 471.926 -180.951C468.116 -75.7996 470.449 31.5978 380.341 54.0486C273.238 80.7393 248.724 159.423 167.638 153.105L167.643 153.103Z" opacity=".34"/><path stroke="#FFFEFF" stroke-miterlimit="10" stroke-width=".5" d="M169.641 158.965C-4.37862 133.63 -131.163 -165.89 114.494 -254.219C214.257 -290.089 487.207 -280.407 475.536 -172.634C464.197 -65.7764 475.078 46.4722 379.499 60.0302C266.435 76.0715 250.839 170.785 169.646 158.962L169.641 158.965Z" opacity=".35"/><path stroke="#FFFDFF" stroke-miterlimit="10" stroke-width=".5" d="M171.641 164.82C10.5112 129.48 -139.61 -147.673 111.086 -257.798C211.756 -302.017 498.365 -273.872 479.138 -164.318C460.27 -55.755 479.662 61.3924 378.649 66.0099C259.577 71.4549 252.771 182.615 171.641 164.82V164.82Z" opacity=".36"/><path stroke="#FFFDFF" stroke-miterlimit="10" stroke-width=".5" d="M173.64 170.683C24.7984 125.924 -147.77 -129.376 107.678 -261.377C209.374 -313.93 509.529 -267.341 482.742 -155.998C456.345 -45.7216 484.208 76.3471 377.802 71.994C252.672 66.8786 254.399 194.963 173.64 170.683V170.683Z" opacity=".38"/><path stroke="#FFFDFF" stroke-miterlimit="10" stroke-width=".5" d="M175.64 176.538C38.2886 122.782 -155.673 -111.047 104.268 -264.949C207.102 -325.835 520.686 -260.798 486.343 -147.675C452.416 -35.693 488.705 91.3173 376.95 77.981C245.713 62.3205 255.589 207.842 175.638 176.545L175.64 176.538Z" opacity=".39"/><path stroke="#FFFDFF" stroke-miterlimit="10" stroke-width=".5" d="M177.638 182.4C50.7836 119.814 -163.357 -92.7331 100.86 -268.529C204.922 -337.767 531.845 -254.264 489.952 -139.358C448.497 -25.6699 493.176 106.289 376.108 83.9624C238.713 57.76 256.228 221.181 177.638 182.4V182.4Z" opacity=".4"/></g></g></g><defs><filter id="filter0_f_1507_2295" width="800.066" height="800.066" x="-106.033" y="-299.033" color-interpolation-filters="sRGB" filterUnits="userSpaceOnUse"><feFlood flood-opacity="0" result="BackgroundImageFix"/><feBlend in="SourceGraphic" in2="BackgroundImageFix" mode="normal" result="shape"/><feGaussianBlur result="effect1_foregroundBlur_1507_2295" stdDeviation="100"/></filter><filter id="filter1_f_1507_2295" width="800.066" height="800.066" x="-106.033" y="-299.033" color-interpolation-filters="sRGB" filterUnits="userSpaceOnUse"><feFlood flood-opacity="0" result="BackgroundImageFix"/><feBlend in="SourceGraphic" in2="BackgroundImageFix" mode="normal" result="shape"/><feGaussianBlur result="effect1_foregroundBlur_1507_2295" stdDeviation="100"/></filter><filter id="filter2_f_1507_2295" width="800.066" height="800.066" x="-199.033" y="18.762" color-interpolation-filters="sRGB" filterUnits="userSpaceOnUse"><feFlood flood-opacity="0" result="BackgroundImageFix"/><feBlend in="SourceGraphic" in2="BackgroundImageFix" mode="normal" result="shape"/><feGaussianBlur result="effect1_foregroundBlur_1507_2295" stdDeviation="100"/></filter><linearGradient id="paint0_linear_1507_2295" x1="139.126" x2="451.352" y1="69.75" y2="178.338" gradientUnits="userSpaceOnUse"><stop stop-color="#6078F8"/><stop offset="1" stop-color="#68B722"/></linearGradient><linearGradient id="paint1_linear_1507_2295" x1="139.126" x2="451.352" y1="69.75" y2="178.338" gradientUnits="userSpaceOnUse"><stop stop-color="#F860F2"/><stop offset="1" stop-color="#7D19E1"/></linearGradient><linearGradient id="paint2_linear_1507_2295" x1="175.5" x2="391.602" y1="-3.5" y2="246.653" gradientUnits="userSpaceOnUse"><stop stop-color="#0C2FE8"/><stop offset="1" stop-color="#7E22B7"/></linearGradient><clipPath id="clip0_1507_2295"><rect width="375" height="812" fill="#fff" rx="30"/></clipPath><clipPath id="clip1_1507_2295"><rect width="572.689" height="548.203" fill="#fff" transform="translate(-160 -163.655) rotate(-30)"/></clipPath></defs></svg>