<svg xmlns="http://www.w3.org/2000/svg" viewBox="0 0 1687 3000" width="1687" height="3000"><g transform="translate(-434.375 -34.375) rotate(-180.0 1279.6875 1531.25) scale(4.120958743315896 4.116628625657652)"><svg width="621.063" height="743.934" viewBox="0 0 621.063 743.934"><linearGradient id="a" gradientTransform="matrix(1 0 0 -1 0 519.7702)" gradientUnits="userSpaceOnUse" x1="318.266" x2="303.142" y1="912.412" y2="-1117.05"><stop offset="0" stop-color="#030a24"/><stop offset=".087" stop-color="#040b28"/><stop offset=".173" stop-color="#080d34"/><stop offset=".258" stop-color="#00043B"/><stop offset=".343" stop-color="#00005A"/><stop offset=".428" stop-color="#040083"/><stop offset=".511" stop-color="#2d25b3"/><stop offset=".559" stop-color="#352acf"/></linearGradient><path d="M621.063.943v742.991L0 739.121 4.073 0z" fill="url(#a)"/><g fill="#fff"><path d="M218.124 711.413a2.834 2.834 0 1 0 0 5.668 2.834 2.834 0 0 0 0-5.668zm390.287-537.74a1.15 1.15 0 1 0 0 2.3 1.15 1.15 0 0 0 0-2.3z"/><circle cx="51.656" cy="275.436" r="1.405"/><path d="M125.851 112.392a2.683 2.683 0 1 0 0 5.365 2.683 2.683 0 0 0 0-5.365zm186.314 381.346a.946.946 0 1 0 0 1.892.946.946 0 0 0 0-1.892zm41.317-190.352a3.073 3.073 0 1 0 0 6.146 3.073 3.073 0 0 0 0-6.146zM517.15 117.359a2.16 2.16 0 1 0 0 4.32 2.16 2.16 0 0 0 0-4.32zM292.203 310.127a1.15 1.15 0 1 0 0 2.3 1.15 1.15 0 0 0 0-2.3zm-154.27 333.018a1.15 1.15 0 1 0 0 2.3 1.15 1.15 0 0 0 0-2.3zm144.304-167.336-1.191-11.957-1.204 11.957-10.707 1.474 10.614 1.171 1.297 11.595 1.24-11.595 9.917-1.171zm-206.07 52.013a1.15 1.15 0 1 0 0 2.3 1.15 1.15 0 0 0 0-2.3z"/><circle cx="450.392" cy="40.716" r="1.213"/><circle cx="153.817" cy="485.269" r="2.417"/><path d="M198.774 75.861a2.16 2.16 0 1 0 0 4.32 2.16 2.16 0 0 0 0-4.32z"/><circle cx="536.979" cy="425.627" r="1"/><circle cx="429.979" cy="604.627" r="2"/><circle cx="556.979" cy="689.627" r="3"/></g></svg></g><g transform="translate(-717.1875 770.3125) rotate(24.883436614067005 964.0625 964.0625) scale(4.670845445736434 4.670845445736434)"><svg width="412.8" height="412.8" viewBox="0 0 412.8 412.8"><linearGradient id="b" gradientTransform="matrix(-1 0 0 1 -1793.475 -354)" gradientUnits="userSpaceOnUse" x1="-1844.205" x2="-2154.434" y1="424.861" y2="694.875"><stop offset=".132" stop-color="#0418B4"/><stop offset=".983" stop-color="#030057"/></linearGradient><path d="M0 206.4c0 9.8.7 19.6 2.1 29.3 14.6 101.6 101.7 177.1 204.4 177.1 114 0 206.4-92.4 206.4-206.4 0-7.4-.4-14.9-1.2-22.3C400.3 79.4 311.8 0 206.4 0 92.4 0 0 92.4 0 206.4z" fill="url(#b)"/></svg></g><g transform="translate(460.9375 267.1875) rotate(-47.739205449253205 995.3125 764.84375) scale(16.43406148867314 16.44082779819866)"><svg width="121.128" height="93.042" viewBox="0 0 121.128 93.042"><linearGradient id="c" gradientUnits="userSpaceOnUse" x1="118.631" x2="9.013" y1="37.781" y2="37.781"><stop offset="0" stop-color="#4D00AE"/><stop offset=".394" stop-color="#41089A" stop-opacity=".62"/><stop offset=".664" stop-color="#1B008B"/><stop offset="1" stop-color="#1E009A" stop-opacity="0"/></linearGradient><path d="M96.33 10.49a27.475 27.475 0 0 0-12.55 1.735 22.4 22.4 0 0 1-22.218-3.8 37.781 37.781 0 1 0 .157 58.585 22.89 22.89 0 0 1 22.468-3.517 27.418 27.418 0 1 0 12.143-53z" fill="url(#c)"/><g fill="#41089A" fill-opacity=".62"><circle cx="76.15" cy="77.649" r="10.345"/><circle cx="100.978" cy="86.844" r="6.198"/></g></svg></g><g fill-opacity=".52" transform="translate(-629.6875 1809.375) rotate(0.0 1182.8125 607.8125) scale(5.956322608910218 5.936016758794461)"><svg width="397.162" height="204.788" viewBox="0 0 397.162 204.788"><linearGradient id="d" gradientTransform="translate(0 -108)" gradientUnits="userSpaceOnUse" x1="198.544" x2="198.544" y1="144.715" y2="306.07"><stop offset="0" stop-color="#4300EC"/><stop offset=".996" stop-color="#040147"/></linearGradient><linearGradient xmlns:xlink="http://www.w3.org/1999/xlink" id="e" gradientTransform="matrix(-1 0 0 1 -4793.884 -108)" x1="-5121.904" x2="-5121.904" xlink:href="#d" y1="228.835" y2="309.418"/><path d="M0 204.788c131.7 0 178.705-169.747 248.291-150.5 40.494 11.178 67.218-17.841 92.388-44.121 20.431-21.32 56.409-6.885 56.409 22.653v171.968z" fill="url(#d)"/><path d="M258.877 204.788c39.383 0 38.125-59.666 72.326-67.587 13.7-3.184 21.1-13.252 27.464-24.282 10.513-18.285 38.5-10.882 38.5 10.216v81.653z" fill="url(#e)"/></svg></g></svg>