<svg height="782.031" viewBox="0 0 783.608 782.031" width="783.608" xmlns="http://www.w3.org/2000/svg"><path d="m238.976 660.958a270.047 270.047 0 0 1 -33.317 6c-61.634 7.042-99.918-11.837-112.915-19.094-109.819-61.296-101.53-232.442-73.844-321.426 1.839-5.886 4.112-13.207 6.983-21.254l.1-.258c6.278-16.686 25.546-67.891 66.156-78.794 25.6-6.872 59.512 2.31 74.179 24.951 8.284 12.787 7.717 25.681 6.638 50.214-1.366 31.067-10.248 55.179-18.609 77.486-18.513 49.395-25.109 45.395-33.123 72.81-2.484 8.514-11.724 40.089-7.467 73.277a109.771 109.771 0 0 0 5.9 24.447 88.661 88.661 0 0 0 14.723 25.834c.662.823 1.355 1.629 2.065 2.435 19 21.4 45.024 29.269 64.278 32.139 1.549.226 3.032.42 4.483.6q16.885 25.323 33.77 50.633z" fill="#f9c898"/><path d="m205.659 666.957a4.76 4.76 0 0 1 -1.016 1.79c-5.967 6.934-33.075 5.644-44.186 4.757-40.621-3.193-66.278-16.868-81.1-27.269-50.102-35.171-73.257-101.272-77.857-170.76-3.967-60.15 5.967-122.848 24.383-170.291a1.56 1.56 0 0 1 .1-.258c15.335-39.426 36.557-68.262 60.504-76.261 14.739-4.918 34.494-1.661 34.494-1.661a173.225 173.225 0 0 1 21.125 2.339 44.625 44.625 0 0 1 5.128 2.273 43.845 43.845 0 0 1 6.37 4.08c-8.483-4.128-30.124-13.175-51.668-4.9-13.063 5.015-21.8 14.739-29.027 25.931-20.335 31.508-73.229 143.746-25.528 243.615 7.757 16.223 23.931 50.071 51.265 52.829a40.925 40.925 0 0 0 21.012-3.854 88.661 88.661 0 0 0 14.723 25.834c.662.823 1.355 1.629 2.065 2.435a87.392 87.392 0 0 0 15.819 13.965 107.767 107.767 0 0 0 35.01 15.481 132.661 132.661 0 0 0 13.449 2.693 182.1 182.1 0 0 0 2.661 43.88c.162.854.984 5.321 2.306 10.74a4.617 4.617 0 0 1 -.032 2.612z" fill="#e6790d"/><path d="m204.643 668.747c-5.967 6.934-33.075 5.644-44.186 4.757-40.621-3.193-66.278-16.868-81.1-27.269-50.102-35.171-73.257-101.272-77.857-170.76.565-1.515 1.161-3.047 1.79-4.563a250.944 250.944 0 0 0 41.51 97.498c17.819 25.012 41.025 57.571 84 70.407 30.043 8.982 56.731 4.451 71.2.79q2.321 14.562 4.643 29.14z" fill="#c06216"/><path d="m779.507 587.117c-5.638 17.816-20.26 25.973-33.075 46.975-8.708 14.272-5.547 15.8-17.98 49.781-12.482 34.107-25.238 68.988-38.7 68.343-9.418-.435-10.143-17.787-28-26.753-11.482-5.773-23.657-4.854-31.994-3.258-6.9 10.063-12.288 18.4-15.981 24.254-7.192 11.4-9.934 16.448-14.82 16.884-6.144.548-11.563-6.628-14-10.288-1.822 4.466-6.66 14.465-14.82 16.045-11.256 2.177-27.543-11.917-33.348-37.88a163.973 163.973 0 0 1 -51.459 19.77 161.972 161.972 0 0 1 -23.479 2.887c.58 2 3.967 14.53-2.677 21.4-6.725 6.983-19.61 3.822-26.754 2.064-16.223-3.983-19.093-11.9-34.171-14.416-8.4-1.387-14.658-.129-19.383.613-28.511 4.515-64.8.322-83.131-4.274-36.848-9.256-60.376-35.026-65.278-40.622-49.475-56.506-28.9-142.426-22.238-170.179 7-29.22 17.529-50.523 32.913-81.678 22-44.557 31.172-49.072 55.087-93.516 14.627-27.189 33.962-63.617 46.879-112.012 10.466-39.283 13.094-72.842 16.3-113.883 5.483-70.051 1.258-107.416 14.756-111.351 11.675-3.4 16.948 23.916 45.911 34.575 31.752 11.691 52.845-11.063 109.012-14.159a224.9 224.9 0 0 1 53.41 3.467c-8.805-43.524-6.321-54.506-2.177-56.119 9.6-3.757 34.284 40.283 66 96.87 32.091 57.248 44.638 88.613 47.831 117.769.532 4.838.806 9.595.87 14.417.081 5.757-.145 11.772-.483 17.174-.517 8.773-1.307 15.9-1.5 17.594-4.1 36.59-13.1 59.1-18.239 76.389-.806 2.693-1.484 5.193-2.08 7.6-3.612 14.578-3.742 25.4-3.306 48.878.355 19.383 1.1 47.427.581 93.386-.371 32.624-1.21 59.36-1.855 77a58.521 58.521 0 0 1 10.079 10.5c9.885 13.3 11.417 27.624 12.352 54.748.678 19.464.775 38.412.42 56.828 6.664-29.9 33.186-143.134 65.1-145.57 12.1-.924 18.817 5.3 18.817 5.3 8.624 7.985 7.977 23.807 4.61 34.447z" fill="#f9c898"/><path d="m703.318 736.938c-1.032 2-2.128 4-3.257 5.983-1.823 3.16-5.548 9.45-11.208 9.95-8.837.79-13.368-13.369-25.64-22.319-7.257-5.289-18.755-9.869-37.687-8.079 1.241-2.645 2.645-5.306 4.08-8.16 6.885-13.723 15.078-33.881 20.319-61.489a133.445 133.445 0 0 0 14.275 40.622c11.768 21.383 26.83 34.171 39.118 43.492z" fill="#e6790d" opacity=".56"/><path d="m476.124 506.827a138.585 138.585 0 0 1 -76.274 107.9q3.915 8.787 7.758 18.242s3.724 9.189 6.585 17.011c7.517 20.549 13.976 49.2 15.3 55.124a477.626 477.626 0 0 1 16.974-67.174c5.543-16.624 10.519-28.29 19.672-29.989 5.863-1.089 11.788 2.217 15.114 5.712 9.588 10.075 3.884 28.352 1.365 36.423-4.23 13.553-10.882 22.042-13.666 26.1-8.778 12.78-16.069 35.275-7.094 77.7 6.039-.747 14.552-1.926 24.716-3.765 12.586-2.278 19.029-3.471 26.4-6.157a97.513 97.513 0 0 0 23.824-12.735 1059.4 1059.4 0 0 1 -60.669-224.393z" fill="#e6790d"/><path d="m599.565 483.291a349.557 349.557 0 0 1 -21.84 124.378 340.938 340.938 0 0 1 -19.225 42.331 23.9 23.9 0 0 1 -5.284.908c15.851 84.89 25.651 102.53 31.746 102.149 15.41-.964 19.843-117.909 20.266-129.887a923.749 923.749 0 0 0 -5.663-139.879z" fill="#e6790d"/><path d="m578.017.041c5.027-1.18 16.587 23.293 21.465 46.581a135.834 135.834 0 0 1 2.47 17.246c-4.675.119-14.208-.373-20.506-6.956-5.324-5.567-5.631-13.42-6.027-28.9-.399-15.586-.696-27.197 2.598-27.971z" fill="#e6790d" opacity=".56"/><path d="m506.144 140.106c-4.368 3.493.813 21.142 12.9 31.184 13.129 10.905 32.748 11.461 35.147 6.3 4.188-8.999-40.203-43.758-48.047-37.484z" fill="#e6790d" opacity=".56"/><path d="m173.021 308.162c-15.517.606-34.918-1.485-51.166-13.472-17.2-12.686-20.322-28.682-29.828-28-11.742.846-20.829 26.252-22.261 45.805-2.339 31.926 15.172 55.862 20.521 62.956 17.522 23.236 40.23 32.869 50.808 36.55a192.689 192.689 0 0 0 23.261-49.051 192.7 192.7 0 0 0 8.665-54.788z" fill="#b14317"/><path d="m65.043 389.11c5.671-.806 8.765 14.31 20.926 27.4 13.085 14.087 30.711 19.414 44.723 21.6a98.326 98.326 0 0 0 -15.8 40.776 96.536 96.536 0 0 0 -.228 25.585c-8.6-3.437-31.163-13.819-45.943-38.512a90.709 90.709 0 0 1 -12.482-48.425c.367-10.072 2.849-27.576 8.804-28.424z" fill="#b14317"/><path d="m136.381 580.037a114.611 114.611 0 0 1 -33.768-6.176c-10.659-3.677-21.045-7.257-29.64-16.884-10.191-11.385-15.594-28.689-10.708-32.929 4.693-4.08 15.014 7.208 32.527 5.337a41.886 41.886 0 0 0 18.109-6.579c.291.693.565 1.37.855 2.064 2.226 17.351 8.128 35.123 20.625 50.281.662 1.629 1.339 3.258 2 4.886z" fill="#b14317"/><path d="m187.275 607.032c-3.1 4.048-15.094 18.674-34.155 20.239-16.642 1.37-33.72-7.644-33.22-12.45.29-2.644 5.79-2.628 14.014-7.4a53.217 53.217 0 0 0 17.223-16.368c.37.162.758.339 1.128.5a107.767 107.767 0 0 0 35.01 15.479z" fill="#3f3f3e"/><path d="m496.8 613.746c-2.541-10.192-12.059-52.947 12.735-82.223 1.521-1.8 18.83-21.862 30.468-17.293 8.973 3.523 9.208 19.587 10.539 58.028 3.251 93.9 5.858 113.83 13.454 129.149 4.941 9.964 7.863 20.815 12.239 31.04 4.448 10.394 7.659 17.234 4.941 23.881-2.164 5.29-7.929 9.241-11.933 9.783-24.226 3.281-54.6-93.912-64.544-125.541-3.533-11.251-6.186-20.599-7.899-26.824z" fill="#683315"/><path d="m600.525 507.878c3.552-10.8 8.733-20.9 15.855-21.646 14.471-1.508 28.684 36.493 31.687 44.906l.01.028s.214.6.418 1.18c13.212 37.434 13.5 54.6 13.5 54.6.2 12.134-2.781 9.078-11.714 62.673-6.061 31.278-12.411 62.264-35.563 94.58a185.444 185.444 0 0 1 -15.756 19.143c-4.363.719-6.524-.665-7.283-1.251-4.249-3.275-3.07-11.141-2.408-15.563a36.553 36.553 0 0 1 1.854-7.344c3.239-8.21 12.141-53.45 14.105-116.017a808.392 808.392 0 0 0 -4.705-115.289z" fill="#683315"/><path d="m152.788 321.164c-3.518 14.8-8.288 34.872-16.469 35.409-18.24 1.2-51.41-94.846-28-112.4 9.624-7.217 28.362-.835 38.291 8.647 18.276 17.449 10.72 49.237 6.178 68.344z" fill="#fff" opacity=".52"/><path d="m527.631 65.694s34.069-3.494 57.887 7.606a88.094 88.094 0 0 1 17.7 11.222c.348.3.626.539.83.718a76.2 76.2 0 0 1 15.984 19.652 4.858 4.858 0 0 1 -5.12 7.14 34.108 34.108 0 0 0 -20.127 2.235c-16.715 7.728-26.168 31.184-18.894 55.885l-23.309 5.257a82.271 82.271 0 0 0 -28.821-29.439c-25.6-15.183-59.769-15.476-82.552-.617-13.984 9.12-18 20.244-20.381 18.94-4.226-2.314 4.515-45.228 37.056-72.877 24.85-21.116 52.539-23.956 69.747-25.722z" fill="#fff" opacity=".66"/><path d="m607.545 125.741c-3.111.178-11.255.642-15.234 7-1.9 3.028-3.57 8.551-1.235 11.116 5.661 6.219 33.788-6.157 32.938-12.763-.473-3.682-9.966-5.723-16.469-5.353z" fill="#fff"/><path d="m445.313 162.539c3.391-3.351 7.845-7.754 15.234-9.058a25.248 25.248 0 0 1 17.7 3.706c2.689 1.719 4.327 2.766 4.581 4.537.888 6.2-16.4 13-18.992 13.991-7.854 3.008-24.73 7.873-27.586 2.882-2.591-4.538 7.787-14.797 9.063-16.058z" fill="#fff"/><path d="m538.4 151.239c-2.021-4.221-25.593-53.441-17.567-58.741 5.4-3.567 24.26 13.342 35.683 29.645a110.467 110.467 0 0 1 18.665 48.857l-21.409 8.234a287.618 287.618 0 0 1 -15.372-27.995z" fill="#b14317"/><path d="m280.223 663.845a106 106 0 0 1 -2.745-35.683 107.338 107.338 0 0 1 17.422-48.955 104.3 104.3 0 0 1 34.182-31.744 132.288 132.288 0 0 1 58.618 48.885c-31.124 11.323-50.217 27.317-62.459 42.244-19.111 23.3-26.481 50.043-35.135 48.31-4.778-.956-6.86-9.97-9.883-23.057z" fill="#b14317"/><path d="m346.441 692.444c-4.993-4.132 1.406-24.7 14.273-38.429 16.772-17.9 40.368-19.742 48.746-20l18.07 49c-13.86-5.053-24.74-5.052-31.681-4.295-6.54.714-11.869 2.349-20.312 4.941-21.201 6.506-26.181 11.194-29.096 8.783z" fill="#b14317"/><path d="m297.28 557.631c15.1-9.182 45.191 17.511 55.446 26.351 30.848 26.591 40.345 57.489 43.918 69.72 1.134 3.882 9.157 31.346 2.745 34.585-5.453 2.755-15.249-13.057-36.781-32.389-39.5-35.458-63.51-33.244-71.916-58.741-4.831-14.652-2.948-33.726 6.588-39.526z" fill="#fff" opacity=".52"/><path d="m668.767 412.2c-15.278-10.8-29.731-14.886-34.971-9.821-6.568 6.35 2.918 25.549 4.941 29.645 8.912 18.038 23.208 28.116 31.38 32.936z" fill="#683315"/><path d="m519.054 422.632c-6.016-.123-12.32 35.464-14.561 61.646-7.183 83.9 19.54 162.413 28.615 161.107 8.994-1.294 3.812-81.429 1.079-123.69-1.515-23.43-6.395-98.885-15.133-99.063z" fill="#fff" opacity=".52"/><path d="m615.574 416.686c-7.625 2.1.385 39.787 3.294 107.05 3.022 69.878-2.241 107.419 4.941 108.7 6.652 1.184 17.891-29.835 23.056-48.584 5.994-21.753 17.921-78.191-9.058-135.871-2.615-5.595-15.501-33.147-22.233-31.295z" fill="#fff" opacity=".52"/><path d="m694.539 250.016c-2.226 12.869-5.935 22.383-11.16 42.928a401.007 401.007 0 0 0 -10.659 58.656c-3.612 14.578-3.742 25.4-3.306 48.878a141.051 141.051 0 0 0 -12.046-46.443c-5-10.982-10.821-20-9.337-32.946 1.6-13.917 10.482-22.044 17.561-30.736 27.463-33.7 25.157-72.391 28.56-71.923.532 4.838.806 9.595.87 14.417.078 5.753-.145 11.767-.483 17.169z" fill="#e6790d" opacity=".56"/><path d="m459.476 720.272c.324-14.2.01-17.9-.43-17.935-1.429-.1 2.4 38.92-16.058 51.466-3.8 2.585-11.1 5.781-48.173-4.941-27.781-8.035-59.1-17.4-95.729-42.813-12.357-8.575-18.726-12.682-24.752-19.241-36.4-39.619-35.585-95.361-34.689-121.694.583-17.11 2.883-66.807 34.328-115.58 38.353-59.489 101.116-95.725 101.116-95.725 23.062-13.315 49.733-24.376 48.754-39.323-.565-8.615-9.807-10.742-21.916-22.751-28.459-28.224-30.411-69.045-30.786-76.888-.931-19.474 3.5-34.667 12.352-65.053 8.2-28.122 12.465-30.644 14-44.467 1.817-16.378-1.124-40.354-24.032-71.8-.129.032-.274.081-.419.129-8.1 2.935-8.757 19.222-10.466 55.571-1.21 26.059-3.371 52.071-3.79 78.147-.774 47.8-13 84.194-25.9 122.558-3.074 9.143-7.192 20.144-13.477 35.006-45.192 106.862-88.063 135.786-104.709 201.262q-1.959 5.6-3.886 11.476c-4.677 14.272-6.773 22.528-8.321 31.591-4.516 26.35-5.274 64.246 4.789 99.095 7.418 25.689 20.718 49.738 42.718 66.214 33.962 25.479 87.033 31.752 114.963 28.027 11.547-1.532 25.4-5.66 41.8.484 8.837 3.306 17.561 9.272 33.736 11.869 7.708 1.241 11.563 1.87 13.772.951 11.801-4.854 5.044-27.898 5.205-55.635z" fill="#e6790d" opacity=".56"/><path d="m341.4 267.334c32.052 14.863 58.358 19.323 76.644 20.605 16.8 1.178 31.114-.026 33.762 6.588 3.387 8.457-14.459 24.307-27.174 32.115-36.319 22.3-82 10.441-104.592 2.587z" fill="#683315"/><path d="m300.513 360.036a218.924 218.924 0 0 0 46.114 4.117c41.7-.724 67.294-13.281 72.465-4.941 4.761 7.68-12.176 26.015-15.646 29.645-31.116 32.55-77.867 31.8-88.934 31.291a134.525 134.525 0 0 1 -44.467-9.881z" fill="#683315"/><path d="m244.248 454.716a250.085 250.085 0 0 0 55.187-1.211c55.72-7.466 87.559-31.24 93.875-23.057 5.418 7.019-12.211 32.021-30.742 48.31-33.985 29.871-75.834 34.686-98.816 37.33a245.537 245.537 0 0 1 -45.949.949z" fill="#683315"/><path d="m692.488 258.859a32.729 32.729 0 0 1 -8.537 3.839c-14.138 4.02-23.662-4-30.674 1.647-3.58 2.882-4.168 7.444-4.323 8.646-.877 6.8 3.636 12.236 6.587 15.646 8.413 9.72 19.729 13.489 27.362 15.056z" fill="#683315"/><path d="m624.044 338.868c-.04-2.286-.139-7.961 3.294-10.293 4.454-3.025 11.143 2.1 21.517 5.061a62.735 62.735 0 0 0 26.33 1.5l-7.085 56.64c-8.426-6.032-43.691-31.987-44.056-52.908z" fill="#683315"/><path d="m553.665 221.387a24.188 24.188 0 0 1 -15.375-5.978 2.636 2.636 0 0 1 3.45-3.987c1.88 1.627 6.974 5.335 13.664 4.6a16.591 16.591 0 0 0 8.674-3.687c6.655-5.7 6.824-20.2.4-34.488a2.637 2.637 0 0 1 4.809-2.163c7.6 16.9 6.88 33.237-1.783 40.656a21.752 21.752 0 0 1 -11.529 4.924 21.34 21.34 0 0 1 -2.31.123z" fill="#623310"/><path d="m581.924 215.012a14.513 14.513 0 0 1 -12.35-7.389 2.636 2.636 0 1 1 4.57-2.628c2.087 3.628 6.192 5.5 9.763 4.465a8.027 8.027 0 0 0 4.765-4.143 9.517 9.517 0 0 0 .466-7.593 2.636 2.636 0 0 1 4.967-1.769 14.938 14.938 0 0 1 -.739 11.761 13.312 13.312 0 0 1 -7.982 6.8 12.337 12.337 0 0 1 -3.46.496z" fill="#623310"/><path d="m417.922 193.519a77.509 77.509 0 0 0 21.033 1.268 73.07 73.07 0 0 0 20.284-4.529 79.094 79.094 0 0 0 18.181-9.726 87.521 87.521 0 0 0 15.194-13.775 5.771 5.771 0 0 1 8.694 7.592c-.109.125-.234.255-.351.368a98.114 98.114 0 0 1 -18.313 13.913 87.818 87.818 0 0 1 -21.019 8.994 79.949 79.949 0 0 1 -22.478 3.009 82.407 82.407 0 0 1 -22.163-3.273 1.979 1.979 0 0 1 .938-3.841z"/><path d="m585.07 152.65a53.115 53.115 0 0 0 31.174-4.428 51.445 51.445 0 0 0 6.79-3.889 57.978 57.978 0 0 0 6.089-4.857 54.737 54.737 0 0 0 9.7-11.961 5.14 5.14 0 0 1 8.838 5.251q-.124.21-.264.4l-.025.034a64.181 64.181 0 0 1 -12.679 12.94 66.1 66.1 0 0 1 -7.543 4.932 58.84 58.84 0 0 1 -42.884 5.448 1.979 1.979 0 0 1 .8-3.872z"/><path d="m509.683 213.534c-3.477-8.843-24.324-11.467-37.053-2.85-5.963 4.036-13.263 12.65-10.926 19.952 2.719 8.5 17.276 11.413 27.552 8.551 12.98-3.615 23.564-17.678 20.427-25.653z" fill="#fff"/><path d="m616.308 185.765c1.5-12.331 30.106-23 41.329-13.777 2.866 2.357 5.1 6.424 4.75 10.451-.666 7.719-10.519 11.964-14.726 13.777-3.209 1.382-17.986 7.749-26.6 0-.605-.542-5.417-4.993-4.753-10.451z" fill="#fff"/><path d="m444.933 131.526c2.75 2.665 10.225-7.544 30.308-11.487 9.2-1.806 14.447-1 18.232-5.483 4.023-4.764 4.543-13.309.67-17.711-6.9-7.846-24.808.835-26.159 1.508-17.574 8.747-26.64 29.694-23.051 33.173z" fill="#b14317"/><path d="m445.949 134.624a3.94 3.94 0 0 1 -2.85-1.2c-1.389-1.347-1.864-3.51-1.411-6.43 1.254-8.082 10.106-23.523 25.122-31 3.494-1.74 21.332-9.958 29.313-.888 4.6 5.229 4.3 15.311-.636 21.153-3.4 4.025-7.7 4.6-13.149 5.333-1.939.26-4.137.554-6.589 1.036a67.594 67.594 0 0 0 -22.821 9.071c-2.672 1.571-4.973 2.925-6.979 2.925zm39.551-38.386c-5.8 0-13.073 2.849-16.338 4.475-15.013 7.471-22.629 24-22.412 28.378.881-.392 2.256-1.2 3.506-1.937a73.277 73.277 0 0 1 24.481-9.7c2.608-.513 4.89-.818 6.9-1.089 5.363-.719 7.818-1.137 9.822-3.509 3.277-3.881 3.626-10.948.7-14.268-1.499-1.711-3.915-2.35-6.659-2.35z" fill="#61320f"/><path d="m424.638 326.84a81.385 81.385 0 0 1 -14.578 7.047c8.563-5.967 14.255-12.159 13.787-19.206-.564-8.612-9.8-10.74-21.915-22.754a85.33 85.33 0 0 1 -6.032-6.627 195.552 195.552 0 0 0 22.157 2.838c16.8 1.177 31.107-.032 33.752 6.579 3.391 8.466-14.448 24.318-27.171 32.123z" fill="#b14317"/><path d="m403.448 389.054c-31.107 32.543-77.857 31.8-88.936 31.285a132.755 132.755 0 0 1 -16.658-1.838c22.512-25.431 47.056-44.267 62.3-54.813 33.72-2.645 54.361-11.675 58.957-4.274 4.753 7.676-12.18 26.012-15.663 29.64z" fill="#b14317"/><path d="m362.568 478.957c-33.978 29.866-75.825 34.688-98.8 37.332-6.4.726-12.481 1.178-18.125 1.4a214.3 214.3 0 0 1 24.56-61.827 249.5 249.5 0 0 0 29.247-2.162c55.716-7.467 87.549-31.236 93.871-23.061 5.418 7.019-12.208 32.031-30.753 48.318z" fill="#b14317"/><path d="m681.875 263.032a113.015 113.015 0 0 1 -16.287 27.124c-1.178 1.435-2.387 2.854-3.613 4.29a41.458 41.458 0 0 1 -6.434-6c-2.951-3.4-7.466-8.854-6.6-15.643.162-1.209.742-5.773 4.322-8.643 6.664-5.369 15.614 1.613 28.612-1.128z" fill="#b14317"/><path d="m668.232 390.541c-.048.355-.08.694-.129 1.048-8.434-6.031-43.7-31.994-44.056-52.909-.049-2.29-.145-7.967 3.289-10.289 4.451-3.032 11.144 2.1 21.513 5.064 1.709 7.031 5.289 13.3 8.514 20.383a138.539 138.539 0 0 1 10.869 36.703z" fill="#b14317"/><path d="m136.374 580.035a114.793 114.793 0 0 1 -33.768-6.176c-10.659-3.677-21.044-7.257-29.64-16.884-9.191-10.289-14.481-25.383-11.836-31.349 9.643 14.3 22.06 25.979 37.509 27.543a40.855 40.855 0 0 0 21.013-3.838 88.569 88.569 0 0 0 14.707 25.786c.677 1.645 1.341 3.273 2.015 4.918z" fill="#683315"/><path d="m187.3 607.026c-3.08 4.015-15.062 18.674-34.155 20.254-16.658 1.371-33.736-7.66-33.22-12.449.274-2.661 5.773-2.645 14-7.418a53.238 53.238 0 0 0 17.223-16.368c.387.177.79.338 1.177.516h.016a107.677 107.677 0 0 0 34.959 15.465z" fill="#683315"/><path d="m568.764 84.282c-2.157 3.5-3.266 9.328-.355 12.919 2.45 3.021 6.7 3.165 8.122 3.213 7.284.247 9.739-4.714 17.884-7.82 10.6-4.044 17.965-.031 18.746-2.347 1.048-3.107-11.348-12.9-25.519-13.185-2.942-.062-14.251-.283-18.878 7.22z" fill="#b14317"/><path d="m577.058 103.059q-.3 0-.616-.01c-1.7-.058-6.873-.233-10.08-4.188-3.612-4.455-2.654-11.4.158-15.963 2.472-4.007 8.152-8.738 21.174-8.472 12.216.242 23.467 7.117 26.893 11.987 1.188 1.69 1.548 3.263 1.072 4.677-.979 2.9-4.054 2.652-6.769 2.432a28.93 28.93 0 0 0 -13.536 1.535 35.568 35.568 0 0 0 -7.211 3.908c-3.207 2.103-6.243 4.094-11.085 4.094zm9.6-23.371c-9.859 0-13.952 3.224-15.65 5.978-1.818 2.946-2.52 7.445-.551 9.874 1.693 2.088 5.058 2.2 6.163 2.239 3.545.132 5.562-1.209 8.631-3.222a40.427 40.427 0 0 1 8.225-4.426 33.94 33.94 0 0 1 15.8-1.867c-3.16-3.107-11.515-8.365-21.685-8.567-.317-.006-.629-.009-.933-.009z" fill="#61320f"/><g fill="#623310"><path d="m428.624 712.272a2.637 2.637 0 0 1 -2.619-2.363 225.826 225.826 0 0 0 -21.149-74.931c-7.547-15.646-20.18-41.832-48.24-65.149a167.747 167.747 0 0 0 -52.386-29.466 2.636 2.636 0 0 1 1.73-4.981 173.049 173.049 0 0 1 54.026 30.392c28.941 24.049 41.885 50.882 49.619 66.913a231.077 231.077 0 0 1 21.644 76.676 2.636 2.636 0 0 1 -2.348 2.895c-.093.009-.186.014-.277.014z"/><path d="m568.105 769.964c-23.428 0-43.623-53.821-61.966-112.063a1013.467 1013.467 0 0 1 -34.77-150.031 2.636 2.636 0 1 1 5.211-.8 1008.248 1008.248 0 0 0 34.588 149.249c9.354 29.7 34.132 108.374 56.941 108.374h.316c.067 0 6.911-.273 9.772-4.535 5.068-7.552-5.387-23.628-9.844-29.186a2.674 2.674 0 0 1 -.409-.717c-.052-.138-1.362-3.688-9.571-32.513-6.862-24.1-12-105.547-13.4-212.559a2.635 2.635 0 0 1 2.6-2.67h.035a2.635 2.635 0 0 1 2.635 2.6c1.4 106.581 6.457 187.5 13.2 211.184 6.837 24.009 8.838 30.315 9.312 31.741 2.853 3.638 17.6 23.463 9.818 35.056-4.275 6.37-13 6.835-13.979 6.867-.162-0-.326.003-.489.003z"/><path d="m464.364 755.531c-.526 0-1.05 0-1.576-.009a1.978 1.978 0 0 1 -1.954-2 1.945 1.945 0 0 1 2-1.954 124.726 124.726 0 0 0 69.682-20.109 1.977 1.977 0 1 1 2.152 3.318 128.631 128.631 0 0 1 -70.305 20.754z"/><path d="m691.511 755.265c-5.962 0-10-5-14.642-10.742-3.241-4.009-6.913-8.554-11.815-12.125-9.5-6.921-22.713-9.352-39.285-7.228a2.636 2.636 0 1 1 -.67-5.229c17.952-2.3 32.438.456 43.06 8.2 5.462 3.978 9.366 8.809 12.81 13.072 4.556 5.635 7.525 9.077 11.055 8.759 4.429-.4 7.733-6.172 9.143-8.638 10.941-19.118 17.084-39.123 23.025-58.469 7.822-25.476 15.211-49.538 32.575-69.75 1.177-1.371 2.5-2.769 3.9-4.249 5.454-5.755 12.241-12.918 15.515-24.219 1.432-4.943 5.437-21.718-3.12-30.091-.226-.217-5.948-5.535-16.543-5.022-19.034.953-43.343 54.544-65.028 143.358a2.636 2.636 0 1 1 -5.122-1.251c7.885-32.294 16.582-61.476 25.151-84.392 15.577-41.652 30.209-62.253 44.735-62.979 12.936-.658 20.182 6.216 20.484 6.508 10.659 10.428 6.145 29.683 4.507 35.336-3.63 12.531-10.906 20.209-16.751 26.379-1.357 1.432-2.639 2.784-3.733 4.057-16.646 19.377-23.878 42.928-31.534 67.863-6.026 19.622-12.256 39.911-23.488 59.539-1.82 3.181-6.081 10.63-13.25 11.272q-.496.041-.979.041z"/><path d="m690.844 687.987h-.022a2.635 2.635 0 0 1 -2.614-2.658c.321-39.183-1.653-71.952-5.152-85.516a44.684 44.684 0 0 0 -4.937-12.135 46.129 46.129 0 0 0 -15.077-15.253 2.636 2.636 0 0 1 2.835-4.446 51.373 51.373 0 0 1 16.77 17 49.71 49.71 0 0 1 5.514 13.519c3.606 13.976 5.643 47.266 5.319 86.877a2.636 2.636 0 0 1 -2.636 2.612z"/><path d="m551.883 182.56a2.636 2.636 0 0 1 -2.38-1.5 73.539 73.539 0 0 0 -17.1-23.111 76.6 76.6 0 0 0 -33.39-17.489 2.636 2.636 0 1 1 1.233-5.125 81.9 81.9 0 0 1 35.692 18.7 78.452 78.452 0 0 1 17.248 22.58l20.541-7.751c-5.733-17.839-1.845-36.887 10.02-48.075a2.636 2.636 0 0 1 3.617 3.836c-10.893 10.272-14.042 28.305-7.836 44.875a2.635 2.635 0 0 1 -1.538 3.39l-25.178 9.5a2.612 2.612 0 0 1 -.929.17z"/><path d="m180.059 675.372c-39.647 0-73.273-9.532-100.226-28.457-33.527-23.538-57.827-63.087-70.274-114.37-10.724-44.184-12.489-96.867-4.97-148.345 5.682-38.905 16.6-75.8 30.726-103.9 15.087-30 33.18-49.226 52.324-55.614 22.974-7.665 59.821-1 78.056 21.135 8.068 9.794 16.4 27.177 9.122 75.056-7.1 46.713-21.856 76.18-34.878 102.178-13.9 27.751-25.9 51.718-24.367 89.052 1.546 37.565 15.533 58.081 21.475 65.158 17.654 21.024 41.707 29.069 58.775 32.116a2.635 2.635 0 1 1 -.926 5.189c-17.927-3.2-43.216-11.682-61.887-33.915-6.289-7.491-21.093-29.145-22.7-68.331-1.597-38.689 10.691-63.224 24.916-91.624 12.847-25.65 27.407-54.721 34.379-100.611 6.961-45.815-.607-61.963-7.978-70.911-16.858-20.466-51-26.6-72.319-19.485-35.728 11.92-67.677 74.321-79.5 155.271-12.607 86.336-1.045 205.61 73.055 257.636 31.714 22.266 73.169 31.078 123.21 26.188a2.636 2.636 0 0 1 .513 5.247q-13.676 1.338-26.526 1.337z"/></g><path d="m596.941 765.553a12.291 12.291 0 0 1 -8.067-2.607c-3.049-2.712-4.187-7.423-3.257-13.6a2.709 2.709 0 0 1 .107-.444c.246-.732.608-1.833 1.03-3.171a193.555 193.555 0 0 0 7.573-35.942c4.534-36.25 6.622-53.861 7.58-70.366 3.815-65.661-5.365-148.034-6.425-157.21a2.636 2.636 0 0 1 5.238-.605c1.064 9.223 10.291 92.017 6.451 158.121-.968 16.663-3.063 34.344-7.612 70.714a198.567 198.567 0 0 1 -7.776 36.872c-.393 1.246-.736 2.291-.985 3.037-.353 2.5-.562 6.715 1.59 8.66a7.969 7.969 0 0 0 5.5 1.224c3.139-.686 16.607-16.754 31.034-52.424 12.164-30.072 28.08-81.618 34.826-156.4 3.968-44 2.86-75.5 1.882-103.3-1.409-40.06-2.627-74.656 11.71-131.233 2.119-8.363 3.977-14.852 5.616-20.576 3.633-12.685 6.033-21.065 7.154-36.059 4.588-61.411-21.821-110.831-55.258-173.4-10.738-20.094-22.462-39.992-32.164-54.59-15.283-22.981-20.788-25.706-21.998-26.022-.7 1.6-.957 7.156-1.234 13.012-.759 16.062 1.877 33.15 3.717 40.148a2.637 2.637 0 0 1 -5.1 1.34c-2.406-9.154-4.585-26.892-3.884-41.736.556-11.756.764-16.155 4.254-17.673 3.754-1.635 9.974.238 27.621 26.506 10.01 14.9 22.2 35.506 33.434 56.536 33.84 63.322 60.568 113.338 55.865 176.276-1.16 15.533-3.62 24.119-7.342 37.117-1.629 5.688-3.475 12.135-5.574 20.419-14.147 55.849-12.947 90.096-11.547 129.753.983 27.95 2.1 59.631-1.9 103.956-6.866 76.113-23.167 128.475-35.632 159s-27.527 53.99-35.045 54.61c-.481.039-.94.057-1.382.057z" fill="#7c3f11"/><path d="m557.747 264.847c3.154-2.968 7.253.414 16.469-.824 11.122-1.493 14.607-7.686 17.705-5.764 4.626 2.87 1.385 19.492-7 31.7-1.1 1.6-11.84 16.969-19.351 14.411-3.974-1.354-5.257-8.176-7.823-21.822-2.755-14.648-.793-16.955-0-17.701z" fill="#e6790d" opacity=".56"/><path d="m450.526 782.031a82.92 82.92 0 0 1 -11.4-1.417c-11.935-1.919-19.8-5.55-26.732-8.753-2.618-1.21-5.09-2.351-7.514-3.259-12.939-4.846-24.293-2.962-34.31-1.3-2.16.359-4.2.7-6.222.966-25.879 3.446-80.5-1.247-116.891-28.531-54.084-40.549-55.947-124.6-48.522-167.871 1.64-9.555 3.918-18.219 8.406-31.964 20.094-61.552 43.283-98.837 65.709-134.895 20.657-33.215 40.169-64.587 56.385-112.864 3.142-9.353 6.391-19.023 9.355-28.558a2.636 2.636 0 0 1 5.035 1.565c-2.982 9.592-6.241 19.292-9.392 28.671-16.412 48.861-36.082 80.488-56.906 113.971-22.26 35.79-45.278 72.8-65.174 133.747-4.457 13.652-6.608 21.821-8.221 31.218-7.224 42.091-5.561 123.738 46.488 162.761 33.267 24.941 86.124 31.109 113.032 27.524 1.937-.258 3.937-.59 6.055-.942 10.141-1.682 22.763-3.778 37.022 1.562 2.607.977 5.167 2.158 7.876 3.409 6.627 3.061 14.139 6.53 25.347 8.333 6.527 1.049 10.833 1.743 12.354 1.115 6.54-2.693 5.679-14.723 4.588-29.953-1.473-20.562-3.49-48.719 11.23-74.382 1.187-2.068 2.461-4.09 3.81-6.231 5.524-8.764 11.237-17.826 11.518-30.992.119-5.581-.436-19.023-8.143-23.29a15.046 15.046 0 0 0 -8.741-1.131c-11.549 1.92-26.01 45.147-37.739 112.812a2.636 2.636 0 0 1 -5.195-.9c8.967-51.725 23.544-114.031 42.069-117.111a19.791 19.791 0 0 1 12.149 1.712c9.864 5.462 11.044 19.9 10.871 28.021-.312 14.629-6.7 24.756-12.329 33.691-1.319 2.093-2.565 4.07-3.7 6.044-13.92 24.266-12.049 50.389-10.545 71.38 1.243 17.355 2.224 31.062-7.84 35.207a9.738 9.738 0 0 1 -3.783.635z" fill="#7c3f11"/><path d="m341.31 267.008a2.64 2.64 0 0 1 -2.519-3.42c7.768-24.98 15.789-55.589 16.4-93.207.274-16.945 1.3-34.119 2.284-50.727.537-9.015 1.091-18.336 1.519-27.5l.06-1.289c1.752-37.58 2.477-53.135 12.122-56.646 6.753-2.459 11.7 3.188 17.961 10.336 5.347 6.1 12 13.7 21.994 19.294 21.67 12.128 44.316 6.2 70.539-.669 27.455-7.19 58.574-15.342 97.417-6.248a160.238 160.238 0 0 1 25.358 8.211 2.636 2.636 0 0 1 -2.038 4.863 154.934 154.934 0 0 0 -24.521-7.941c-37.571-8.794-68.018-.82-94.88 6.215-27.327 7.157-50.925 13.337-74.45.17-10.786-6.036-17.772-14.012-23.386-20.42-5.8-6.625-8.982-10.027-12.192-8.856-6.345 2.31-7.166 19.938-8.659 51.938l-.06 1.289c-.429 9.2-.984 18.535-1.522 27.565-.985 16.553-2 33.67-2.276 50.5-.62 38.286-8.757 69.349-16.635 94.687a2.64 2.64 0 0 1 -2.516 1.855z" fill="#9f5517"/><path d="m763.462 597.651c-2.024 1.092-4.528.541-8.235-.275-3.6-.792-9.367-2.061-10.735-5.272-2.755-6.47 11.813-22.084 18.535-19.359 6.259 2.536 6.873 21.431.435 24.906z" fill="#623310"/><circle cx="752.676" cy="562.036" fill="#623310" r="5.044"/><circle cx="768.013" cy="563.512" fill="#623310" r="5.044"/><circle cx="778.1" cy="576.035" fill="#623310" r="5.044"/><path d="m486.046 641.588c-.73 3.126-2.3 9.861-7.411 11.236-3.5.942-8.146-.771-9.607-3.845-3.482-7.322 10.893-22.812 15.645-20.861 2.954 1.213 2.363 9.231 1.373 13.47z" fill="#7c3f11"/><path d="m469.3 617.688c-2.476.72-3.877 8.212-.9 10.11 2 1.277 5.951 0 6.943-2.424 1.426-3.494-3.694-8.368-6.043-7.686z" fill="#7c3f11"/><path d="m480.255 614.253c-2.477.72-3.877 8.213-.9 10.11 2 1.277 5.951 0 6.942-2.424 1.424-3.494-3.697-8.368-6.042-7.686z" fill="#7c3f11"/></svg>