<svg xmlns="http://www.w3.org/2000/svg" viewBox="0 0 800 800" width="800" height="800"><g transform="translate(700.0 233.0) rotate(0.0 27.0 27.0) scale(0.4862236628849271 0.4862192848974887)"><svg width="111.06" height="111.061" viewBox="0 0 111.06 111.061"><radialGradient id="a" cx="55.53" cy="55.53" gradientUnits="userSpaceOnUse" r="51.237"><stop offset="0" stop-color="#fff4c2"/><stop offset=".772" stop-color="#faba10"/></radialGradient><path d="M55.53 106.767A53.758 53.758 0 0 0 40.128 71 53.767 53.767 0 0 0 4.293 55.53a55.513 55.513 0 0 0 35.625-16.155A55.441 55.441 0 0 0 55.53 4.293a54.888 54.888 0 0 0 15.857 35.625 54.856 54.856 0 0 0 35.38 15.612c-3.336-.009-21.822.268-36.555 15.224C55.824 85.359 55.521 103.3 55.53 106.767z" fill="url(#a)"/><path d="M55.529 111.061a4.293 4.293 0 0 1-4.29-4.169 49.181 49.181 0 0 0-14.15-32.861A49.138 49.138 0 0 0 4.17 59.823a4.294 4.294 0 0 1-.134-8.579A51.134 51.134 0 0 0 36.86 36.361 51.2 51.2 0 0 0 51.244 4.036 4.294 4.294 0 0 1 55.53 0h.023a4.3 4.3 0 0 1 4.266 4.082 50.443 50.443 0 0 0 14.594 32.79 50.491 50.491 0 0 0 32.565 14.371 4.293 4.293 0 0 1-.211 8.581h-.107c-4.74 0-20.678 1.038-33.39 13.943-12.527 12.717-13.459 28.465-13.446 32.988a4.3 4.3 0 0 1-4.226 4.306zM23.81 55.283a56.256 56.256 0 0 1 19.357 12.682 56.21 56.21 0 0 1 12.089 18.01 54.507 54.507 0 0 1 31.222-30.85 57.386 57.386 0 0 1-18.117-12.162 57.5 57.5 0 0 1-12.913-19.558A58.137 58.137 0 0 1 42.975 42.39 58.091 58.091 0 0 1 23.81 55.283z" fill="#f8b342"/></svg></g><g transform="translate(9.0 651.0) rotate(0.0 389.0 53.5) scale(0.9943254434844844 0.9837271306426405)"><svg width="782.44" height="108.77" viewBox="0 0 782.44 108.77"><linearGradient id="b" gradientUnits="userSpaceOnUse" x1="391.66" x2="391.66" y1="112.234" y2="17.084"><stop offset="0" stop-color="#8d827b"/><stop offset="1" stop-color="#685e57"/></linearGradient><path d="M780.9 5.07v67.62a36.084 36.084 0 0 1-36.09 36.08H38.51A36.084 36.084 0 0 1 2.42 72.69V2.27A8.125 8.125 0 0 1 4 2.14l82.5-.23z" fill="url(#b)"/><path d="M782.44 2.84a2.879 2.879 0 0 1-2.84 2.89S7.47 8.12 4 8.14h-.01a6.619 6.619 0 0 1-1.57-.17A2.779 2.779 0 0 1 0 5.14a2.552 2.552 0 0 1 2.42-2.87A8.125 8.125 0 0 1 4 2.14l82.5-.23L779.56 0a2.9 2.9 0 0 1 2.88 2.84z" fill="#623310"/></svg></g><g transform="translate(40.0 36.0) rotate(0.0 353.5 345.5) scale(0.9995673725374873 0.9997771842454793)"><svg width="707.306" height="691.154" viewBox="0 0 707.306 691.154"><path d="M704.366 601.324a72.031 72.031 0 0 1-2.123 14.237q-13.608.186-27.377.407c-22.744.336-45.789.672-68.887 1.008a2.844 2.844 0 0 0-.389.017 1.04 1.04 0 0 0-.23 0c-34.488.5-69.117 1.009-103.127 1.5-.442 0-.884.018-1.326.018h-.283c-30.721.459-60.911.9-90.022 1.344-118.549 62.626-232.34 81.461-309.981 59.8-30.155-8.4-54.862-22.921-72.282-43.366-.513-.619-1.026-1.238-1.557-1.875a107.761 107.761 0 0 1-23.558-77.606 111.894 111.894 0 0 1 6.014-27.66 430.782 430.782 0 0 0 19.6-76.545q.875-5.412 1.627-11.019a337.265 337.265 0 0 0 2.9-61.14l-.017-.265c-.354-7.517-.955-14.591-1.7-21.418-3.184-29.235-9-53.765-9.25-85.847-.053-7.322.177-14.627.69-21.86 5.5-79.357 43.065-152.347 78.136-198.33C127.061 18.82 151.539-.4 160.789 3.309c6.579 2.653 10.363 18.924-.6 76.563 22.886-3.131 50.158-4.74 79.109-4.546 48.035.3 100.739 5.518 145.892 16.908.159-.265.336-.513.5-.778 37.706-58.346 76.615-107.283 66-14.361-2.635 124.527 59.8 163.666 32.117 231.031-5.836 14.22-17.066 33.038-14.926 60.38 1.468 18.57 8.418 32.454 14.926 44.3 9.887 17.4 18.818 31.552 26.989 43.508a269.166 269.166 0 0 1-1.167-8.825q-.769-6.447-1.273-12.681a282.9 282.9 0 0 1 4.156-77.588 218.267 218.267 0 0 1 12.079-40.8 116 116 0 0 1 11.209-21.47c.884-1.255 1.8-2.529 2.759-3.8a4.015 4.015 0 0 0 .248-.336c8.365-11.142 19.366-22.9 29.111-30.756 8.684-7 16.377-10.895 20.339-8.471 8.577 5.252-2.565 38.678-9.8 58.062 14.467-7.728 39.262-18.092 69.947-16.094 3.237.212 34.488 2.423 35.673 11.195.707 5.147-8.861 13.566-52.457 27.979 9.3 4.316 14.485 19.19 10.488 30.774-5.252 15.263-24.672 19.6-37.759 16.784a183.847 183.847 0 0 0 4.881 36.38c5.836 24.46 15.564 42.676 31.87 68.515 42.8 67.895 64.8 83.6 63.266 116.142z" fill="#f9c898"/><path d="M704.366 601.324a72.031 72.031 0 0 1-2.123 14.237q-13.61.186-27.377.406c-22.745.337-45.789.673-68.887 1.009a2.852 2.852 0 0 0-.389.017 390.094 390.094 0 0 0-17.58-46.054 401.412 401.412 0 0 0-72.689-107.76 210.633 210.633 0 0 1-6.968-28.368c-5.96-33.78-8.278-90.552 27.448-139.861.9-1.255 1.822-2.511 2.759-3.8.088-.106.177-.23.248-.336 8.047-10.983 17.3-22.833 29.111-30.756a53.173 53.173 0 0 1 20.338-8.472 12.748 12.748 0 0 1 7.278 3.845c7.635 8.62.661 30.319-17.076 54.218 15-6.007 88.064-34.54 102.8-14.429a14.6 14.6 0 0 1 2.818 9.53c-1.756 19.407-49.756 27.543-52.456 27.979 9.3 4.316 14.484 19.19 10.488 30.774-5.254 15.263-24.673 19.6-37.76 16.784a183.847 183.847 0 0 0 4.881 36.38c5.836 24.46 15.564 42.676 31.87 68.516 42.8 67.894 64.8 83.599 63.266 116.141z" fill="#b14317"/><path d="m482.649 618.786-27.5.407-44.549.666C246.017 706.82 90.593 709.35 28.339 636.289c-.513-.619-1.026-1.238-1.557-1.875C2.765 604.985-3.461 564.926 9.238 529.148a431.133 431.133 0 0 0 21.223-87.564 344.88 344.88 0 0 0 3.193-52.209c-1.054-58.789-9.06-80.406-11.254-116.461C16.713 179.677 66.14 104.772 78.855 85.5a329.05 329.05 0 0 1 51.284-60.337 356.413 356.413 0 0 0-48.5 91.485c-5.827 16.529-8.366 29.219-14.039 50.98-6.9 26.459-13.512 54.155-13.1 90.747.637 57.391 17.757 67.419 23.947 117.877 11.637 94.885-40.165 130.486-13.972 187.17 18.131 39.238 59.728 56.849 69.506 60.733 107.008 42.517 204.452-78.509 307.736-33.343a136.881 136.881 0 0 1 40.932 27.974z" fill="#e6790d" opacity=".56"/><path d="M674.866 615.968c-22.744.336-45.789.672-68.887 1.008-.212 0-.407 0-.619.017a190.228 190.228 0 0 0-3.8-13.388c-10.31-31.94-34.434-78.826-66.817-113.331-4.51-4.793-12.805-13.229-19.419-27.1a84.4 84.4 0 0 1-5.7-15.687c-2.547-9.922-3.856-22.073-3.484-38.538a268.615 268.615 0 0 1 6.367-51.731 300.379 300.379 0 0 1 12.079-40.8c-5.164 20.268-10.488 53.2-.46 89.632 9.874 35.888 34.72 65.05 83.993 121.93 41.6 48.018 53.482 55.623 65.243 84.2.495 1.22 1.008 2.479 1.504 3.788z" fill="#683315"/><path d="M161.447 457.454c-1.769-24.721 9.573-53.6 22.879-54.789 11.06-.99 14.146 20.19 36.124 42.747 11.77 12.079 25.414 21 59.606 34.92 60.176 24.508 86.269 24.728 115.6 36.125 30.388 11.809 70.153 37.91 106.579 102.04-25.239-35.432-51.367-58.851-77.077-68.926-99.542-39.007-210.854-.732-249.861-54.187a75.671 75.671 0 0 1-13.85-37.93z" fill="#e6790d"/><path d="M339.329 377.765c-3.623-3.768-10.341 2.216-28 1.806-20.837-.484-29.349-9.233-33.415-5.419-7.905 7.414 9.172 54.618 31.609 54.187 21.044-.404 37.552-42.519 29.806-50.574z" fill="#e6790d" opacity=".56"/><path d="M23.086 251.054c19.472 27.731 39.793 40.89 57.391 47.31 17.544 6.4 34.452 6.862 39.28 18.959 6.933 17.385-15.67 47.328-41.314 58.93-15.175 6.862-30.844 7.074-45.082 4.191zM96.73 501.557c-20.922 34.806-61.476 49.2-93.506 55.251a111.894 111.894 0 0 1 6.014-27.66 430.782 430.782 0 0 0 19.6-76.545 130.031 130.031 0 0 0 42.145-5.235c16.554-4.97 29.394-12.663 36.575-6.774 10.802 8.878.668 41.806-10.828 60.963zm403.894 116.958c-30.721.459-60.911.9-90.022 1.344-118.549 62.626-232.34 81.461-309.981 59.8a116.063 116.063 0 0 1-10.346-82.187c11.549-46.567 51.519-81.656 100.208-87.669a229.135 229.135 0 0 0 20.64 8.472c52.7 18.605 86.944 8.171 140.85 14.166 18.8 2.087 46.638 5.2 73.185 17.138C441 556.7 472.2 574.087 500.624 618.515z" fill="#b14317"/><path d="M78.443 376.253c-15.139 6.862-30.791 7.074-45.011 4.209-1.645-52.174-8.949-73.379-11.036-107.548a251.344 251.344 0 0 1-.318-23.31c11.336 16.465 22.992 27.943 34.24 35.955 4.687 35.213 17.067 49.432 22.125 90.694zM57.379 538.238C39.728 548 20.274 553.59 3.224 556.808a111.894 111.894 0 0 1 6.014-27.66 430.782 430.782 0 0 0 19.6-76.545 130.031 130.031 0 0 0 42.145-5.235c1.716-.513 3.4-1.062 5.041-1.627-7.362 37.352-21.634 63.598-18.645 92.497zm425.276 80.549c-.725.017-1.45.017-2.175.035-.832.018-1.663.018-2.494.036l-4.263.053c-4.244.07-9.178.141-12.91.194-2.512.053-5 .088-7.482.124-.884.018-1.768.018-2.635.035-.672.018-1.326.018-2 .036q-8.41.105-16.749.247l-3.643.053-17.7.266c-90.2 47.646-177.655 69.947-248.5 68.338-1.22-.018-2.44-.053-3.643-.106-.354 0-.707-.018-1.061-.035a131.416 131.416 0 0 1-3.75-.16c-.884-.053-1.751-.088-2.617-.159-4.793-.265-9.5-.672-14.1-1.185a76.157 76.157 0 0 1-2.883-.353c-1.414-.16-2.794-.337-4.173-.531-1.026-.142-2.052-.283-3.078-.46-2.087-.3-4.156-.654-6.19-1.008-.866-.159-1.733-.318-2.582-.5-2-.372-3.979-.778-5.943-1.2-1.114-.247-2.21-.5-3.324-.76a188.845 188.845 0 0 1-8.136-2.087 116.063 116.063 0 0 1-10.346-82.187c17.916 16.006 37.406 24.177 43.7 26.688 107.017 42.517 204.449-78.508 307.735-33.338a136.784 136.784 0 0 1 40.942 27.964z" fill="#683315"/><path d="M294.315 299.518c2.516 1.825 14.245 9.917 30.254 7.677a41.925 41.925 0 0 0 23.481-11.741c4.015 17.807-4.611 34.769-18.514 40.189-10.49 4.089-26.172 2.46-33.866-9.031-7.976-11.912-1.804-26.105-1.355-27.094z" fill="#b14317"/><path d="M428.677 183.122a74.826 74.826 0 0 0-18.694 7.676c-40.147 23.345-42.039 75.5-42.128 80.029q-12.707 1.034-25.414 2.051c-.637-11.743-3.98-42.163-27.166-66.181-26-26.953-67.985-36.485-109.547-25.5-11.354 2.989-22.036-6.879-19.631-18.358 7.764-37.069 26.653-69.152 53.2-87.51 48.035.3 100.739 5.518 145.892 16.908.159-.265.336-.513.5-.778a180.824 180.824 0 0 1 53.376 70 15.818 15.818 0 0 1-10.388 21.663z" fill="#fff" opacity=".66"/><ellipse cx="215.279" cy="291.085" fill="#fff" rx="35.823" ry="25.54"/><ellipse cx="445.423" cy="291.085" fill="#fff" rx="29.953" ry="21.374"/><g fill="#623310"><path d="M502.24 621.358a2.857 2.857 0 0 1-2.4-1.3c-18.539-28.374-40.884-49.353-66.412-62.358-40.375-20.571-91.545-23.239-136.691-25.592-41.933-2.186-81.54-4.252-106.927-19.99-4.5-2.792-16.458-10.2-24.761-24.8-8-14.067-10.536-31.412-7.329-50.159a2.862 2.862 0 1 1 5.643.964c-2.982 17.428-.678 33.461 6.661 46.363 7.583 13.332 18.64 20.185 22.8 22.765 24.138 14.966 63.031 16.992 104.209 19.139 45.716 2.384 97.533 5.086 138.991 26.208 26.431 13.465 49.513 35.109 68.606 64.329a2.863 2.863 0 0 1-2.393 4.428zm11.714-157.59a2.864 2.864 0 0 1-2.8-2.267c-18.417-86.509 1.962-139.212 22.3-168.191l1.11-1.588c9.848-14.124 32.915-47.212 54.252-42.939a15.577 15.577 0 0 1 8.867 4.757c7.693 8.754 3.332 27.146-11.584 50.048 34.065-12.967 84.31-28.009 97.468-10.063a17.346 17.346 0 0 1 3.364 11.48c-1.932 21.4-49.443 29.673-54.854 30.546a2.863 2.863 0 1 1-.912-5.652c13.483-2.174 48.762-10.978 50.065-25.408a11.759 11.759 0 0 0-2.278-7.58c-10.212-13.927-58.055-1.179-99.425 15.39a2.863 2.863 0 0 1-3.384-4.334c16.667-23.063 23.6-43.416 17.239-50.648a9.984 9.984 0 0 0-5.682-2.919c-17.669-3.558-40.827 29.684-48.437 40.6l-1.12 1.6c-19.685 28.049-39.374 79.219-21.387 163.713a2.861 2.861 0 0 1-2.2 3.394 2.8 2.8 0 0 1-.602.061z"/><path d="M612.253 383.943a41.057 41.057 0 0 1-8.507-.855c-11.438-2.452-18.668-7.415-20.358-13.977-2.386-9.26 6.186-21.432 15.739-29.388 9.406-7.831 23.2-14.465 33.7-9.594 10.746 4.984 16.463 21.334 11.994 34.3-4.903 14.234-19.915 19.514-32.568 19.514zm12.647-49.735c-6.361 0-14.438 3.531-22.106 9.915-9.508 7.916-15.336 17.825-13.858 23.56 1.1 4.288 6.941 7.863 16.013 9.806 11.016 2.357 29.581-.751 34.465-14.92 3.46-10.042-.992-23.537-8.989-27.247a13.066 13.066 0 0 0-5.525-1.114z"/><path d="M702.244 618.423a2.864 2.864 0 0 1-2.778-3.562 69.66 69.66 0 0 0 2.042-13.681c1.016-21.475-9.031-35.768-29.048-64.246-9.128-12.987-20.489-29.148-33.785-50.235-16.351-25.93-26.328-44.667-32.217-69.375a187.342 187.342 0 0 1-4.973-36.938 2.863 2.863 0 1 1 5.722-.2A181.589 181.589 0 0 0 612.026 416c5.737 24.067 15.106 41.665 31.492 67.651 13.219 20.964 24.534 37.061 33.625 49.994 20.768 29.546 31.192 44.376 30.083 67.81a75.477 75.477 0 0 1-2.208 14.808 2.864 2.864 0 0 1-2.774 2.16zM316.872 340.1q-1 0-2.008-.051c-9.669-.481-17.818-4.474-22.358-10.954-8.917-12.731-1.162-30.273-.249-32.231a2.861 2.861 0 0 1 4.033-1.263c20.548 11.953 41.629 7.979 50.156-2.776l.037-.048c5.838-7.427 5.8-27.1 5.267-31.73a2.862 2.862 0 1 1 5.687-.657c.442 3.831 1.127 24.568-5.629 34.78 1.242 5.388 3.626 20.946-6.525 32.749-6.547 7.617-17.29 12.181-28.411 12.181zm-20.563-37.96c-1.8 5.094-4.555 15.906.886 23.674 3.518 5.023 10.062 8.129 17.954 8.522 10.093.514 19.981-3.386 25.794-10.144 6.576-7.647 6.695-17.626 5.975-23.665-12.059 10.221-32.35 11.006-50.609 1.613z"/></g><path d="M223.62 159.611c2.561 5.7 22.1 3.278 36.372-2.1 8.543-3.217 33.944-12.782 34.273-30.776.225-12.284-11.288-25.668-20.984-25.18-7.641.385-9.138 9.134-24.48 27.978-16.433 20.184-27.23 25.519-25.181 30.078z" fill="#b14317"/><path d="M233.517 165.746c-5.981 0-10.867-1.311-12.508-4.963-1.961-4.364 1.545-7.788 7.909-14a212.422 212.422 0 0 0 17.664-19.054c5.652-6.943 9.332-12.4 12.29-16.782 5.021-7.443 8.051-11.935 14.265-12.246 4.712-.231 9.8 2.053 14.343 6.451 6.087 5.894 9.784 14.186 9.647 21.64-.364 19.932-27.279 30.069-36.123 33.4-6.535 2.459-18.304 5.552-27.487 5.554zm-7.282-7.3c1.167 2.514 16.681 2.439 32.748-3.613 7.949-2.992 32.127-12.1 32.421-28.148.106-5.831-3-12.67-7.906-17.423-3.339-3.234-7-5-10.073-4.847-3.2.162-4.907 2.467-9.808 9.732-2.862 4.243-6.781 10.053-12.6 17.2a217.68 217.68 0 0 1-18.1 19.536c-3.089 3.011-6.588 6.428-6.682 7.563z" fill="#61320f"/><path d="m341.105 276.672-5.743-45.219a16.072 16.072 0 0 1-6.251-4.672c-7.031-9.04-.841-25.877 9.726-30.122 1.591-.639 2.412-.644 16.88 0 16.839.749 18.092.861 19.292 2.165 3.8 4.123-2.023 10.311.024 24.21a45.259 45.259 0 0 0 1.31 6.014l-6.664 46.084z" fill="#b14317"/><path d="M341.105 279.535a2.863 2.863 0 0 1-2.837-3.247c1.514-11.147 2.025-32.934-11.55-53.617a82.87 82.87 0 0 0-9.786-12.194 2.862 2.862 0 1 1 4.109-3.986 88.587 88.587 0 0 1 10.459 13.038c13.3 20.263 14.034 41.447 12.834 54.081l22.4-1.343a97.829 97.829 0 0 1 14.5-52.681 94.741 94.741 0 0 1 9.468-12.686 2.863 2.863 0 1 1 4.284 3.8 88.787 88.787 0 0 0-8.893 11.915 92.156 92.156 0 0 0-13.559 52.216 2.863 2.863 0 0 1-2.689 2.984l-28.574 1.715q-.082.005-.166.005zM169.429 691.154c-63.4 0-113.974-18.632-143.262-53.01q-.8-.94-1.606-1.927C.328 606.519-6.575 565.124 6.547 528.188a429.64 429.64 0 0 0 21.074-86.975c6.465-48.581 1.885-79.815-2.544-110.021-2.639-18-5.368-36.605-5.539-58.247-.057-7.262.173-14.695.687-22.09a2.862 2.862 0 1 1 5.711.4c-.5 7.248-.73 14.531-.673 21.648.168 21.247 2.747 38.839 5.478 57.462 4.486 30.6 9.126 62.232 2.554 111.606a435.427 435.427 0 0 1-21.353 88.137C-.515 565.166 6.021 604.441 29 632.6c.512.63 1.021 1.238 1.528 1.835 29.918 35.117 83.357 53.138 150.467 50.788 69.943-2.466 148.876-25.946 228.266-67.9a2.863 2.863 0 0 1 2.675 5.062C331.785 664.74 252 688.448 181.2 690.944c-3.969.14-7.9.21-11.771.21z" fill="#623310"/><path d="M605.994 619.834a2.863 2.863 0 0 1-2.718-1.968c-22.1-67-39.088-88.063-62.6-117.213-16.244-20.136-34.655-42.959-59.353-86.426-6.622-12.06-13.791-26.481-15.287-45.488-1.862-23.649 5.815-40.756 11.983-54.5 1.14-2.54 2.216-4.938 3.144-7.2 13.783-33.545 4.8-59.185-7.64-94.672-11.579-33.041-25.99-74.161-24.695-135.341a2.6 2.6 0 0 1 .018-.265c4.668-40.841-1.174-47.519-3.9-48.495-5.587-2-20.085 7.743-57.35 65.514a2.865 2.865 0 0 1-3.106 1.224c-76.2-19.217-167.36-20.021-223.9-12.3a2.862 2.862 0 0 1-3.2-3.37c11.836-62.305 5.577-72.066 2.338-73.371-1.071-.432-4.4-.9-12.279 4.034C109.216 33.931 33.8 137.877 25.936 251.252a2.862 2.862 0 0 1-5.711-.4C24.79 185.02 50.546 128.407 71.347 92.507 99.282 44.3 128.161 15.318 144.4 5.15 151.835.5 157.707-1.011 161.857.658c6.906 2.783 13.286 14.008 1.876 75.865 56.816-7.179 145.373-6.055 220.158 12.434 33.068-51.063 51.353-70.24 62.975-66.08 9.222 3.3 11.591 20.077 7.678 54.4-1.249 60.072 12.96 100.613 24.378 133.194 12.371 35.3 22.142 63.183 7.533 98.741-.963 2.344-2.058 4.783-3.217 7.366-5.9 13.151-13.246 29.517-11.5 51.707 1.407 17.877 7.973 31.117 14.577 43.145 24.449 43.027 42.7 65.658 58.812 85.624 23 28.506 41.16 51.023 63.585 119.017a2.865 2.865 0 0 1-2.719 3.759z" fill="#9f5517"/><path d="M375.679 66.545C369.5 68.5 364.653 76 364.63 82.828c-.036 10.767 11.946 13.8 33.244 35.28 12.69 12.8 16.835 20.2 20.257 18.8 4.446-1.811 3.349-16.7 0-27.914-6.968-23.318-28.512-46.861-42.452-42.449z" fill="#b14317"/><path d="M417.226 139.972c-3.259 0-6.277-3.386-11.105-8.8-2.659-2.982-5.967-6.694-10.28-11.045a231.643 231.643 0 0 0-20-17.839c-8.789-7.145-14.1-11.458-14.068-19.465.028-8.208 5.88-16.733 13.047-19 4.4-1.392 9.384-.641 14.81 2.234 12.845 6.8 25.987 24.52 31.248 42.128 2.122 7.1 6.371 28.112-1.663 31.385a5.219 5.219 0 0 1-1.989.402zm-40.683-70.7c-4.8 1.521-9.031 7.859-9.051 13.564-.016 5.016 3.059 7.773 11.955 15a236.846 236.846 0 0 1 20.46 18.25c4.42 4.459 7.784 8.234 10.488 11.268 2.733 3.068 5.555 6.233 6.769 6.791 1.463-1.677 1.79-12.4-1.776-24.336C410.6 93.8 398.376 77.16 386.946 71.107c-2.764-1.462-6.816-2.972-10.4-1.833z" fill="#61320f"/><path d="M324.459 545.808c.9 5.768-111.44 53.954-162.56 9.934-31.738-27.329-30.6-82.209-22.578-85.344 8.134-3.179 20.038 48.148 65.927 65.927 13.184 5.109 30.314 6.115 64.572 8.128 41.036 2.412 54.332-.599 54.639 1.355z" fill="#fff" opacity=".44"/><path d="M411.983 622.713a2.893 2.893 0 0 1-.018-5.724l289.654-2.489a2.728 2.728 0 0 1 2.5 2.842 2.7 2.7 0 0 1-2.461 2.883L412 622.713z" fill="#623310"/><path d="M240.842 230.38a58.4 58.4 0 0 0 14.463 10.993 52.834 52.834 0 0 0 17.412 5.816 49.776 49.776 0 0 0 18.633-.953 54.84 54.84 0 0 0 17.541-7.774l.014-.01a2.564 2.564 0 0 1 3.089 4.083 61.087 61.087 0 0 1-18.44 10.83 58.4 58.4 0 0 1-21.585 3.6 63.824 63.824 0 0 1-21.737-4.557 70.005 70.005 0 0 1-10.026-4.93 68.275 68.275 0 0 1-9.273-6.532l-.036-.03a7.255 7.255 0 0 1 9.359-11.088 7.346 7.346 0 0 1 .586.552zm150.621 7.073a57.5 57.5 0 0 0 13.9 4.17 48.862 48.862 0 0 0 14.151.326 42.865 42.865 0 0 0 13.19-3.878 43.693 43.693 0 0 0 11.121-7.758 5.881 5.881 0 0 1 8.129 8.5 5.7 5.7 0 0 1-.483.415l-.066.051a54.623 54.623 0 0 1-14.86 8.117 52.127 52.127 0 0 1-16.463 2.964 56.514 56.514 0 0 1-16.207-2.127A63.4 63.4 0 0 1 389.109 242a2.564 2.564 0 0 1 2.324-4.562z"/><path d="M280.7 205.226c14.172-.726 24.036 14.74 21.567 20.187-3.588 7.916-37.7 4.545-40.05-4.71-1.39-5.475 7.853-14.932 18.483-15.477zm118.679 16.399c-2.356-4.429 3.046-12.453 8.908-16.02 13.822-8.41 34.4 5.4 33.652 11.462-.953 7.717-37.772 13.556-42.56 4.558z" fill="#fff" opacity=".66"/></svg></g><g transform="translate(207.0 226.0) rotate(0.0 182.5 49.5) scale(0.9982359939285373 0.9934971098265897)"><svg width="365.645" height="99.648" viewBox="0 0 365.645 99.648"><path d="M359.921 16.8h-13.088c3.767 90.358-123.412 95.434-134.165 15.033A17.412 17.412 0 0 0 195.389 16.8h-9a17.53 17.53 0 0 0-17.243 14.892C165.782 52.5 155.454 68.1 141.623 78.466a76.608 76.608 0 0 1-25.609 12.451 84.919 84.919 0 0 1-15.475 2.724 83.784 83.784 0 0 1-6.986.283 80.573 80.573 0 0 1-8.772-.46C49.55 89.838 16.867 64.3 16.831 16.8H5.725V5.725h354.2z" fill="#262625"/><path d="M359.921 5.725V16.8h-13.088c1.995 47.837-32.717 71.773-67.42 71.773-30.847 0-61.685-18.9-66.745-56.74A17.411 17.411 0 0 0 195.389 16.8h-9a17.53 17.53 0 0 0-17.243 14.892c-3.36 20.816-13.689 36.415-27.52 46.779a76.608 76.608 0 0 1-25.609 12.451 84.919 84.919 0 0 1-15.475 2.724 83.356 83.356 0 0 1-6.986.283 80.573 80.573 0 0 1-8.772-.46C49.55 89.838 16.867 64.3 16.831 16.8H5.725V5.725h354.2m0-5.725H5.725A5.725 5.725 0 0 0 0 5.725V16.8a5.725 5.725 0 0 0 5.725 5.72h5.541c1.173 21.156 8.81 39.418 22.263 53.081C46.489 88.764 64.483 97.13 84.2 99.159a86.508 86.508 0 0 0 9.358.489c2.561 0 5.073-.1 7.465-.3a90.791 90.791 0 0 0 16.5-2.905 82 82 0 0 0 27.54-13.395C161.128 71 171.411 53.559 174.794 32.6a11.8 11.8 0 0 1 11.592-10.08h9A11.72 11.72 0 0 1 207 32.6c2.563 19.165 11.508 35.184 25.868 46.315 12.8 9.919 29.328 15.382 46.55 15.382 20.856 0 40.507-8.016 53.913-21.993 12.3-12.819 18.908-29.936 19.295-49.78h7.3a5.724 5.724 0 0 0 5.724-5.725V5.725A5.724 5.724 0 0 0 359.921 0z"/><g fill="#fff"><path d="M290.928 87.681 241.62 5.724h-15.688l49.822 82.753a62.9 62.9 0 0 0 15.174-.8zm38.343-19.42L290.539 5.724h-32.312l47.433 78.048a64.153 64.153 0 0 0 23.611-15.511zm-228.732 25.38-6.986.283a80.573 80.573 0 0 1-8.772-.46L31.953 5.725H47.64zm41.084-15.175a76.608 76.608 0 0 1-25.609 12.451L64.247 5.725H96.56z" opacity=".23"/></g></svg></g><g transform="translate(581.0 109.0) rotate(0.0 55.5 55.5) scale(0.9994597514856834 0.9994507522892824)"><svg width="111.06" height="111.061" viewBox="0 0 111.06 111.061"><radialGradient id="c" cx="55.53" cy="55.53" gradientUnits="userSpaceOnUse" r="51.237"><stop offset="0" stop-color="#fff4c2"/><stop offset=".772" stop-color="#faba10"/></radialGradient><path d="M55.53 106.767A53.758 53.758 0 0 0 40.128 71 53.767 53.767 0 0 0 4.293 55.53a55.513 55.513 0 0 0 35.625-16.155A55.441 55.441 0 0 0 55.53 4.293a54.888 54.888 0 0 0 15.857 35.625 54.856 54.856 0 0 0 35.38 15.612c-3.336-.009-21.822.268-36.555 15.224C55.824 85.359 55.521 103.3 55.53 106.767z" fill="url(#c)"/><path d="M55.529 111.061a4.293 4.293 0 0 1-4.29-4.169 49.181 49.181 0 0 0-14.15-32.861A49.138 49.138 0 0 0 4.17 59.823a4.294 4.294 0 0 1-.134-8.579A51.134 51.134 0 0 0 36.86 36.361 51.2 51.2 0 0 0 51.244 4.036 4.294 4.294 0 0 1 55.53 0h.023a4.3 4.3 0 0 1 4.266 4.082 50.443 50.443 0 0 0 14.594 32.79 50.491 50.491 0 0 0 32.565 14.371 4.293 4.293 0 0 1-.211 8.581h-.107c-4.74 0-20.678 1.038-33.39 13.943-12.527 12.717-13.459 28.465-13.446 32.988a4.3 4.3 0 0 1-4.226 4.306zM23.81 55.283a56.256 56.256 0 0 1 19.357 12.682 56.21 56.21 0 0 1 12.089 18.01 54.507 54.507 0 0 1 31.222-30.85 57.386 57.386 0 0 1-18.117-12.162 57.5 57.5 0 0 1-12.913-19.558A58.137 58.137 0 0 1 42.975 42.39 58.091 58.091 0 0 1 23.81 55.283z" fill="#f8b342"/></svg></g></svg>